<svg width="64" height="64" viewBox="0 0 64 64" fill="none" xmlns="http://www.w3.org/2000/svg">
<path d="M7.69195 15.4101C11.9401 15.4101 15.3839 11.9605 15.3839 7.70507C15.3839 3.44968 11.9401 0 7.69195 0C3.4438 0 0 3.44968 0 7.70507C0 11.9605 3.4438 15.4101 7.69195 15.4101Z" fill="#A4A4A7"/>
<path d="M22.647 21.2488V63.9965H35.897V42.8568C35.897 37.2788 36.9446 31.8768 43.8491 31.8768C50.6586 31.8768 50.743 38.2542 50.743 43.209V64H64V40.5573C64 29.0419 61.5251 20.1924 48.0888 20.1924C41.6378 20.1924 37.3137 23.7385 35.5454 27.0945H35.3661V21.2488H22.647V21.2488ZM1.05469 21.2488H14.3258V63.9965H1.05469V21.2488Z" fill="#A4A4A7"/>
</svg>
