<svg width="64" height="64" viewBox="0 0 64 64" fill="none" xmlns="http://www.w3.org/2000/svg">
<path d="M7.58996 13.0584C7.62886 12.5705 7.57579 12.0779 7.43505 11.6207C7.29431 11.1635 7.06987 10.7546 6.78 10.4272L0.806581 1.36026V0H19.3613L33.7043 39.6174L46.3126 0H64V1.356L58.8872 7.52391C58.6732 7.73384 58.5078 8.01211 58.408 8.32981C58.3083 8.6475 58.278 8.99304 58.3202 9.3305V54.6695C58.2773 55.007 58.3073 55.3528 58.407 55.6707C58.5068 55.9886 58.6726 56.2668 58.8872 56.4761L63.8785 62.644V64H38.7834V62.644L43.9435 56.3231C44.4564 55.6854 44.4564 55.4942 44.4564 54.5207V17.8704L30.0831 63.8512H28.1426L11.4102 17.8704V48.6844C11.2719 49.9809 11.6127 51.2859 12.3383 52.2253L19.061 62.4995V63.8555H0V62.4995L6.72263 52.2253C7.0763 51.7611 7.33892 51.1991 7.48951 50.5843C7.6401 49.9695 7.6745 49.3189 7.58996 48.6844V13.0584Z" fill="#A4A4A7"/>
</svg>
