<svg width="88" height="64" viewBox="0 0 88 64" fill="none" xmlns="http://www.w3.org/2000/svg">
<path d="M88 31.7242C88 31.5075 88 31.2613 87.9902 30.9757C87.9804 30.1779 87.9607 29.2816 87.9411 28.3263C87.8625 25.5783 87.725 22.8403 87.5089 20.2598C87.2143 16.7042 86.7821 13.7396 86.1929 11.5137C85.571 9.19076 84.352 7.07219 82.6578 5.36974C80.9636 3.66729 78.8535 2.44059 76.5384 1.81225C73.7589 1.06371 68.3179 0.6008 60.6571 0.315174C57.0134 0.177285 53.1143 0.088642 49.2152 0.0393961C47.85 0.0196978 46.583 0.00984918 45.4438 0H42.5562C41.417 0.00984918 40.15 0.0196978 38.7848 0.0393961C34.8857 0.088642 30.9866 0.177285 27.3429 0.315174C19.6821 0.610649 14.2312 1.07356 11.4616 1.81225C9.14572 2.43905 7.03479 3.66523 5.34034 5.36792C3.6459 7.07061 2.42747 9.19 1.80714 11.5137C1.20804 13.7396 0.785714 16.7042 0.491071 20.2598C0.275 22.8403 0.1375 25.5783 0.0589284 28.3263C0.0294641 29.2816 0.0196427 30.1779 0.00982128 30.9757C0.00982128 31.2613 0 31.5075 0 31.7242V32.2758C0 32.4925 -1.50009e-07 32.7387 0.00982128 33.0243C0.0196427 33.8221 0.0392856 34.7184 0.0589284 35.6737C0.1375 38.4217 0.275 41.1597 0.491071 43.7402C0.785714 47.2958 1.21786 50.2604 1.80714 52.4863C3.06429 57.2041 6.75714 60.9271 11.4616 62.1877C14.2312 62.9363 19.6821 63.3992 27.3429 63.6848C30.9866 63.8227 34.8857 63.9114 38.7848 63.9606C40.15 63.9803 41.417 63.9901 42.5562 64H45.4438C46.583 63.9901 47.85 63.9803 49.2152 63.9606C53.1143 63.9114 57.0134 63.8227 60.6571 63.6848C68.3179 63.3893 73.7687 62.9264 76.5384 62.1877C81.2429 60.9271 84.9357 57.2139 86.1929 52.4863C86.792 50.2604 87.2143 47.2958 87.5089 43.7402C87.725 41.1597 87.8625 38.4217 87.9411 35.6737C87.9705 34.7184 87.9804 33.8221 87.9902 33.0243C87.9902 32.7387 88 32.4925 88 32.2758V31.7242V31.7242ZM80.9286 32.2364C80.9286 32.4432 80.9286 32.6697 80.9188 32.9357C80.9089 33.7039 80.8893 34.5509 80.8696 35.4669C80.8009 38.0868 80.6634 40.7067 80.4571 43.1394C80.192 46.3109 79.8187 48.911 79.3571 50.6544C78.7482 52.9295 76.9607 54.7319 74.7018 55.3327C72.6393 55.8843 67.4437 56.3275 60.3821 56.5934C56.8071 56.7313 52.9571 56.8199 49.117 56.8692C47.7714 56.8889 46.5241 56.8987 45.4045 56.8987H42.5955L38.883 56.8692C35.0429 56.8199 31.2027 56.7313 27.6179 56.5934C20.5563 56.3176 15.3509 55.8843 13.2982 55.3327C11.0393 54.7221 9.25179 52.9295 8.64286 50.6544C8.18125 48.911 7.80804 46.3109 7.54286 43.1394C7.33661 40.7067 7.20893 38.0868 7.13036 35.4669C7.10089 34.5509 7.09107 33.6941 7.08125 32.9357C7.08125 32.6697 7.07143 32.4334 7.07143 32.2364V31.7636C7.07143 31.5568 7.07143 31.3303 7.08125 31.0643C7.09107 30.2961 7.11071 29.4491 7.13036 28.5331C7.19911 25.9132 7.33661 23.2933 7.54286 20.8606C7.80804 17.6891 8.18125 15.0889 8.64286 13.3456C9.25179 11.0705 11.0393 9.26808 13.2982 8.66728C15.3607 8.11573 20.5563 7.67251 27.6179 7.40658C31.1929 7.2687 35.0429 7.18005 38.883 7.13081C40.2286 7.11111 41.4759 7.10126 42.5955 7.10126H45.4045L49.117 7.13081C52.9571 7.18005 56.7973 7.2687 60.3821 7.40658C67.4437 7.68236 72.6491 8.11573 74.7018 8.66728C76.9607 9.27793 78.7482 11.0705 79.3571 13.3456C79.8187 15.0889 80.192 17.6891 80.4571 20.8606C80.6634 23.2933 80.7911 25.9132 80.8696 28.5331C80.8991 29.4491 80.9089 30.3059 80.9188 31.0643C80.9188 31.3303 80.9286 31.5666 80.9286 31.7636V32.2364ZM35.2589 45.1979L58.0446 31.9015L35.2589 18.8021V45.1979Z" fill="#A4A4A7"/>
</svg>
