<svg width="64" height="64" viewBox="0 0 64 64" fill="none" xmlns="http://www.w3.org/2000/svg">
<path d="M32.0036 2.75024e-06C14.3215 -0.00734175 0 14.6964 0 32.8446C0 47.1958 8.959 59.395 21.4358 63.8751C23.1161 64.3085 22.8587 63.0819 22.8587 62.2447V56.5527C13.1561 57.7204 12.7628 51.1251 12.1122 50.0234C10.7966 47.7172 7.68629 47.1297 8.6158 46.028C10.8252 44.8602 13.0774 46.3218 15.6872 50.2805C17.5748 53.1522 21.2571 52.6674 23.1232 52.19C23.5308 50.4641 24.4031 48.9217 25.6043 47.7246C15.5513 45.8738 11.3614 39.5722 11.3614 32.0808C11.3614 28.4453 12.5269 25.1035 14.8149 22.4081C13.3563 17.9647 14.9507 14.1602 15.1652 13.5947C19.3194 13.2128 23.638 16.65 23.9741 16.9217C26.3336 16.2681 29.0292 15.9229 32.0465 15.9229C35.0781 15.9229 37.7808 16.2828 40.1618 16.9438C40.9697 16.3121 44.9737 13.3597 48.8348 13.7195C49.0421 14.2851 50.6008 18.0014 49.228 22.386C51.5446 25.0888 52.7244 28.46 52.7244 32.1028C52.7244 39.6089 48.5059 45.9178 38.4243 47.7393C39.2878 48.6116 39.9735 49.6519 40.4412 50.7994C40.9089 51.9469 41.1494 53.1787 41.1485 54.4228V62.6853C41.2057 63.3463 41.1485 64 42.221 64C54.8837 59.6153 64 47.328 64 32.852C64 14.6964 49.6713 2.75024e-06 32.0036 2.75024e-06V2.75024e-06Z" fill="#A4A4A7"/>
</svg>
