<svg width="350" height="337" viewBox="0 0 350 337" fill="none" xmlns="http://www.w3.org/2000/svg">
<path d="M263.392 260.21C229.213 367.548 110.724 354.728 79.1059 268.899C48.436 272.285 40.0971 265.572 29.3778 245.728C9.46972 226.466 5.74804 214.033 11.8267 197.936C-9.04739 159.406 0.125952 144.352 20.6022 125.526C13.9658 119.645 10.9949 69.7208 52.7792 63.2526C51.7295 44.6407 60.42 39.0978 79.1059 32.8401C86.9631 11.6803 103.22 8.95029 137.61 11.1169C171.185 0.560474 187.343 1.41257 210.739 11.1169C252.014 -22.281 301.139 29.1795 292.644 40.0811C304.345 37.1847 332.855 56.242 326.284 80.6311C354.077 100.482 352.994 115.043 345.298 142.904C352.574 162.75 349.36 170.781 340.91 183.454C343.79 198.953 341.546 209.248 323.359 222.556C307.212 253.952 293.489 260.917 263.392 260.21Z" fill="#FBFBFE"/>
<path d="M98.0212 95.4006L269.019 75.6469C281.075 113.536 307.344 248.861 260.751 230.854C255.067 253.648 246.486 274.906 233.698 291.244C225.133 302.848 214.467 311.596 201.19 316.077C201.19 316.077 163.27 344.381 116.831 303.096C100.291 288.392 89.6779 265.63 82.9097 239.885C35.3462 189.069 92.9468 104.943 98.0212 95.4006Z" fill="#FBFBFE"/>
<path d="M339.323 108.618C335.739 96.3753 327.247 86.367 315.528 82.3204C315.792 77.8062 315.436 73.2774 314.468 68.8582C311.288 54.2903 299.166 48.8302 285.903 46.5163C282.274 35.6644 276.685 25.508 268.619 18.0189C253.202 3.5536 230.111 5.94738 213.691 17.2665C212.735 17.9067 211.99 18.8104 211.548 19.8655C200.808 13.0261 187.534 10.8603 174.675 10.6779C163.152 10.5184 150.27 12.2624 141.132 19.1018C127.075 17.2209 112.429 17.9619 99.0516 22.966C91.5964 25.7702 86.561 31.9598 86.0886 38.9246C77.1124 38.4002 69.6112 41.1245 64.8523 50.3235C61.4992 56.8209 59.4827 63.6033 61.672 69.4738C50.6909 70.6136 40.2399 74.6831 33.6028 84.2012C24.6266 97.0706 27.6456 113.018 31.7592 127.061C22.2184 133.388 14.648 141.971 12.5969 154.043C10.9722 163.629 12.5969 173.238 15.4891 182.426C17.1714 187.749 18.6579 194.064 22.0801 198.624C18.2661 203.696 17.471 210.707 20.3632 218.071C23.6818 226.494 29.3048 236.924 37.7971 241.461C39.7559 249.235 46.7156 255.14 54.1362 258.56C58.8144 260.691 63.5733 262.39 68.8046 261.979C74.8425 261.466 80.3273 258.696 86.296 257.773C86.5999 257.715 86.9 257.639 87.1948 257.545C86.7423 254.876 86.5571 252.169 86.6417 249.463C86.3787 248.615 86.2925 247.723 86.3882 246.841C86.2148 246.249 86.1332 245.634 86.1462 245.018C86.2384 241.37 86.0425 237.779 86.1462 234.166C86.1098 232.466 86.1598 230.765 86.296 229.07C85.4606 228.824 84.5779 228.777 83.7206 228.933C82.8632 229.09 82.0556 229.445 81.3643 229.971C81.0808 230.049 80.8035 230.149 80.5347 230.267C71.5355 234.223 71.6276 212.029 71.7774 206.238C74.082 209.35 77.0548 212.291 80.5692 212.941C85.789 213.91 90.0178 209.521 91.631 204.962C93.5092 199.707 93.3479 193.369 93.5899 187.863C93.9704 180.569 93.4636 173.255 92.0804 166.08C91.9722 165.556 91.7898 165.049 91.5388 164.575C91.7648 163.289 91.5921 161.966 91.0434 160.779C91.007 160.113 90.8711 159.457 90.6401 158.83C90.4672 157.553 90.2829 156.3 90.0524 155.091C91.7448 153.621 93.1439 151.85 94.1775 149.871C96.4821 145.311 96.9314 140.079 97.5191 135.052C97.8725 132.111 98.222 129.17 98.5677 126.229C103.802 127.796 109.232 128.628 114.699 128.703C120.956 128.703 126.13 125.568 131.246 122.319C136.664 119.104 141.415 114.899 145.246 109.929C145.73 109.256 146.168 108.572 146.594 107.877C156.654 108.447 166.851 105.939 176.553 103.226C181.494 101.992 186.197 99.9624 190.473 97.2188C191.464 96.797 192.454 96.3525 193.422 95.8737C196.572 94.3465 199.596 92.5781 202.468 90.5846C203.044 90.1856 203.62 89.7639 204.15 89.3307C205.417 88.6468 206.65 87.9173 207.86 87.1193C211.263 92.0964 215.183 96.7077 219.556 100.878C225.006 106.064 231.079 111.012 238.119 113.724C238.116 114.184 238.162 114.643 238.257 115.092C239.329 120.096 242.025 124.827 243.604 129.729C245.055 134.288 246.381 138.768 248.213 143.145C250.56 149.181 254.338 154.572 259.228 158.864C258.18 167.813 257.408 176.783 256.924 185.777C256.636 191.659 256.613 197.085 259.424 201.987C259.544 203.212 260.104 204.354 261.003 205.205C261.901 206.057 263.079 206.561 264.321 206.626C265.15 206.78 266.005 206.713 266.799 206.432C272.56 205.292 277.388 199.502 281.248 194.03C282.093 199.334 282.186 204.728 281.525 210.057C280.499 216.543 271.869 214.275 267.294 212.793C266.853 212.65 266.397 212.559 265.935 212.519C265.957 213.944 265.508 215.337 264.656 216.486C264.656 216.486 264.656 216.566 264.437 216.862V216.999C264.252 217.478 264.068 217.968 263.895 218.458C263.425 219.867 263.04 221.302 262.743 222.755C262.537 223.613 262.104 224.4 261.487 225.035C261.61 225.461 261.76 225.905 261.936 226.369C260.853 230.062 259.851 233.767 258.894 237.494C259.068 238.3 259.042 239.135 258.819 239.929C258.597 240.723 258.184 241.452 257.615 242.054C257.615 242.134 257.558 242.202 257.535 242.27C257.385 242.795 257.27 243.331 257.131 243.866C256.811 245.165 256.351 246.426 255.76 247.628C256.097 248.743 256.782 249.723 257.718 250.428C258.654 251.133 259.792 251.525 260.968 251.549C273.102 252.096 287.874 252.495 297.933 244.71C305.838 238.646 315.125 228.603 315.355 218.105C322.453 214.229 329.655 208.085 332.847 200.79C335.624 194.406 334.564 187.943 332.363 181.765C337.243 176.891 340.338 170.544 341.155 163.732C342.111 155.467 339.588 148.571 335.393 142.074C342.434 132.886 342.653 119.891 339.323 108.618Z" fill="#192229"/>
<path d="M134.825 168.999C134.233 168.998 133.643 169.078 133.073 169.238H132.82C131.624 169.209 130.452 169.565 129.478 170.253C123.417 171.529 123.855 181.515 130.803 181.515C131.999 181.544 133.172 181.188 134.145 180.5C134.26 180.5 134.352 180.432 134.468 180.398H134.825C142.245 180.398 142.257 168.999 134.825 168.999Z" fill="#192229"/>
<path d="M215.903 169.215C214.736 169.185 213.59 169.525 212.631 170.184C206.282 171.199 206.604 181.492 213.668 181.492C214.835 181.52 215.981 181.18 216.94 180.523C223.301 179.509 222.967 169.215 215.903 169.215Z" fill="#192229"/>
<path d="M161.147 161.122C161.152 161.073 161.152 161.023 161.147 160.974C160.375 158.786 159.395 156.675 158.22 154.67C157.728 153.358 157.069 152.114 156.262 150.965C156.121 150.742 155.899 150.581 155.641 150.516C155.384 150.45 155.111 150.484 154.879 150.612C154.804 150.648 154.738 150.699 154.683 150.76C154.645 150.755 154.606 150.755 154.568 150.76H154.303C154.166 150.794 154.039 150.861 153.934 150.954C153.918 150.867 153.89 150.783 153.853 150.703C153.888 150.66 153.911 150.609 153.922 150.555C153.988 150.441 154.02 150.31 154.015 150.179V149.905C154.033 149.811 154.033 149.714 154.015 149.62C153.941 149.37 153.777 149.155 153.554 149.016C153.243 148.857 152.92 148.708 152.597 148.572C152.483 148.342 152.321 148.138 152.123 147.973C151.925 147.808 151.694 147.686 151.445 147.614C150.708 147.375 149.97 147.17 149.221 146.964C149.161 146.828 149.073 146.705 148.962 146.605C148.851 146.505 148.719 146.429 148.576 146.383C148.497 146.355 148.416 146.332 148.334 146.315C148.319 146.132 148.242 145.959 148.114 145.826C147.986 145.693 147.815 145.608 147.631 145.585L146.721 145.471C146.593 145.406 146.45 145.375 146.306 145.38H145.615H145.096C145.085 145.192 145.009 145.014 144.881 144.875C144.753 144.736 144.581 144.645 144.393 144.616C143.02 144.381 141.627 144.271 140.233 144.286C140.143 144.21 140.038 144.153 139.926 144.118C139.813 144.083 139.694 144.07 139.577 144.08C138.54 144.08 137.503 144.206 136.477 144.297C136.331 144.198 136.159 144.143 135.982 144.137C135.498 144.137 135.025 144.137 134.553 144.137C134.526 143.894 134.413 143.668 134.234 143.499C134.054 143.33 133.821 143.229 133.573 143.214C130.451 143.096 127.332 143.516 124.355 144.457C124.13 144.547 123.939 144.707 123.811 144.912C123.682 145.116 123.623 145.356 123.641 145.596C123.524 145.447 123.366 145.335 123.186 145.272C123.007 145.209 122.812 145.199 122.627 145.243C122.074 145.368 121.475 145.528 120.968 145.699C120.854 145.601 120.715 145.536 120.567 145.512C120.418 145.488 120.266 145.505 120.126 145.562C119.066 145.95 118.029 146.383 117.004 146.839C116.895 146.674 116.735 146.55 116.547 146.484C116.36 146.418 116.156 146.415 115.967 146.474C113.426 147.245 111.072 148.526 109.053 150.236C108.937 150.143 108.799 150.081 108.652 150.055C108.505 150.029 108.353 150.04 108.212 150.088C106.915 150.559 105.704 151.236 104.628 152.094C104.532 152.185 104.456 152.295 104.405 152.417C104.353 152.538 104.328 152.669 104.329 152.801C104.329 152.801 104.329 152.869 104.329 152.903H104.271L103.234 153.69C103.118 153.748 103.019 153.834 102.946 153.94C102.862 154.039 102.802 154.156 102.773 154.282C102.733 154.412 102.733 154.551 102.773 154.681L101.621 155.616H101.506C101.307 155.622 101.114 155.686 100.951 155.798C100.788 155.911 100.662 156.068 100.587 156.25C100.513 156.433 100.493 156.632 100.532 156.825C100.57 157.018 100.664 157.196 100.803 157.337L100.031 157.999C99.9349 158.09 99.8589 158.2 99.8074 158.321C99.7559 158.443 99.73 158.573 99.7312 158.705C99.7157 158.792 99.7157 158.881 99.7312 158.967C99.7022 159.099 99.7022 159.235 99.7312 159.366L99.5238 159.526C99.2946 159.614 99.0949 159.764 98.9477 159.959L98.0144 161.19C97.8907 161.399 97.8483 161.644 97.8949 161.882C97.9416 162.119 98.0742 162.331 98.2679 162.478C98.4615 162.625 98.7021 162.697 98.9454 162.683C99.1888 162.668 99.4187 162.567 99.593 162.399C101.538 160.199 103.649 158.149 105.907 156.266L106.334 156.015L106.852 155.719C106.988 155.769 107.135 155.784 107.278 155.762C107.421 155.741 107.556 155.682 107.67 155.593L107.878 155.457C108.226 155.412 108.566 155.324 108.892 155.194C109.74 154.857 110.46 154.268 110.954 153.507C110.998 153.444 111.033 153.375 111.058 153.302L112.763 152.162C112.826 152.27 112.91 152.364 113.011 152.438C113.112 152.512 113.227 152.564 113.349 152.592C113.471 152.62 113.598 152.622 113.721 152.599C113.845 152.576 113.962 152.528 114.065 152.459L116.623 150.886L117.545 150.384C117.695 150.528 117.885 150.624 118.09 150.661C118.295 150.697 118.507 150.672 118.698 150.589L118.928 150.487C119.013 150.71 119.176 150.897 119.386 151.014C119.597 151.13 119.843 151.17 120.08 151.125C121.416 150.896 122.67 150.331 123.721 149.484C123.975 149.556 124.246 149.532 124.482 149.415L125.761 148.811C125.857 149.019 126.031 149.182 126.246 149.265C126.461 149.348 126.7 149.344 126.913 149.256L128.066 148.868C128.391 148.698 128.741 148.579 129.103 148.515H129.391C129.442 148.708 129.563 148.875 129.731 148.987C129.898 149.098 130.101 149.145 130.301 149.119L135.452 148.788C135.598 148.863 135.76 148.902 135.924 148.902C136.031 148.92 136.14 148.92 136.247 148.902L138.205 149.073C138.313 149.119 138.425 149.154 138.54 149.176C138.625 149.243 138.723 149.293 138.828 149.324C139.358 149.468 139.897 149.578 140.441 149.654C140.879 149.86 141.328 150.042 141.777 150.202C141.821 150.376 141.909 150.537 142.035 150.667C142.16 150.797 142.318 150.892 142.492 150.943C143.207 151.144 143.95 151.229 144.693 151.193L147.643 151.535H147.781C147.813 151.717 147.897 151.886 148.024 152.022C148.151 152.157 148.314 152.253 148.495 152.299L149.74 152.493C149.729 152.716 149.793 152.937 149.923 153.12C150.052 153.304 150.239 153.44 150.454 153.507C151.102 153.702 151.771 153.817 152.448 153.849C152.47 153.89 152.497 153.928 152.528 153.963L152.666 154.1C152.825 154.24 153.003 154.355 153.196 154.442C153.306 154.501 153.422 154.547 153.542 154.579C153.611 154.75 153.733 154.896 153.89 154.996C154.047 155.097 154.231 155.146 154.418 155.137C154.583 155.146 154.746 155.109 154.891 155.03C155.035 154.952 155.155 154.835 155.236 154.693V155.947C155.24 156.17 155.317 156.386 155.455 156.562L155.593 156.961C155.621 157.09 155.685 157.208 155.778 157.303C155.846 157.412 155.941 157.503 156.054 157.565C156.127 157.605 156.204 157.636 156.285 157.657C156.375 157.762 156.488 157.846 156.616 157.901C156.744 157.956 156.883 157.982 157.022 157.976L157.103 158.272C157.144 158.411 157.215 158.539 157.31 158.648C157.364 158.806 157.47 158.943 157.61 159.036C158.013 160.37 158.462 161.692 158.969 162.991C159.052 163.24 159.219 163.454 159.442 163.595C159.606 163.679 159.788 163.722 159.972 163.721C159.966 163.766 159.966 163.812 159.972 163.858C159.972 163.949 159.972 164.04 159.972 164.131V164.2C159.986 164.462 160.092 164.712 160.271 164.906C160.462 165.093 160.718 165.199 160.986 165.203C161.47 165.203 162.057 164.758 161.988 164.2C161.849 163.141 161.566 162.106 161.147 161.122Z" fill="#192229"/>
<path d="M221.826 174.402C222.118 173.63 222.194 172.795 222.045 171.985C221.975 171.736 221.81 171.523 221.584 171.392C221.493 171.346 221.396 171.312 221.296 171.29C221.255 170.976 221.125 170.679 220.921 170.435C220.718 170.191 220.448 170.009 220.144 169.91C219.452 169.768 218.738 169.768 218.047 169.91L216.825 170.059C216.709 169.965 216.568 169.905 216.42 169.887C216.271 169.869 216.12 169.893 215.984 169.956L214.832 170.401L213.679 170.651C213.497 170.699 213.333 170.798 213.207 170.936V170.936C213.075 170.902 212.936 170.902 212.804 170.936C212.54 170.971 212.281 171.036 212.032 171.13C211.704 171.247 211.391 171.4 211.098 171.586C210.976 171.668 210.87 171.772 210.787 171.894C210.653 171.918 210.527 171.972 210.419 172.053L210.326 172.122C210.242 172.111 210.157 172.111 210.073 172.122C209.952 172.06 209.817 172.028 209.681 172.028C209.545 172.028 209.41 172.06 209.289 172.122V172.122L209.116 172.053C208.925 171.898 208.682 171.818 208.435 171.831C208.187 171.843 207.954 171.947 207.78 172.122L207.434 172.566C207.33 172.698 207.256 172.852 207.218 173.015C207.18 173.179 207.179 173.349 207.215 173.513C207.182 173.589 207.158 173.669 207.146 173.752C207.081 173.717 207.011 173.694 206.939 173.684C206.907 173.626 206.868 173.572 206.823 173.524C206.781 173.464 206.735 173.407 206.685 173.353L206.443 173.171C206.329 173.099 206.198 173.059 206.063 173.057C205.932 173.017 205.791 173.017 205.66 173.057C205.533 173.078 205.416 173.138 205.326 173.228C205.215 173.299 205.123 173.397 205.06 173.513L204.957 173.752C204.911 173.924 204.911 174.104 204.957 174.276L205.06 174.516C205.096 174.577 205.139 174.635 205.187 174.687C205.182 174.721 205.182 174.755 205.187 174.789C205.196 174.922 205.235 175.051 205.302 175.165L205.406 175.268C205.406 175.268 205.406 175.359 205.406 175.405C205.469 175.602 205.542 175.796 205.625 175.986C205.767 176.292 205.958 176.573 206.19 176.818V176.818C206.233 176.933 206.299 177.038 206.386 177.126C206.451 177.239 206.541 177.336 206.648 177.411C206.756 177.486 206.878 177.536 207.008 177.559L207.204 177.696C207.313 177.769 207.441 177.812 207.572 177.821C207.705 177.856 207.844 177.856 207.976 177.821L208.149 177.764C208.367 178.126 208.648 178.446 208.978 178.71L209.07 178.824C209.252 178.991 209.468 179.116 209.704 179.189H209.808C209.93 179.207 210.054 179.207 210.177 179.189C210.338 179.188 210.498 179.157 210.649 179.098V179.098H210.753C210.879 179.11 211.006 179.11 211.133 179.098H211.444C211.525 179.133 211.61 179.156 211.698 179.166C211.824 179.179 211.951 179.179 212.078 179.166H212.182C212.211 179.319 212.265 179.465 212.343 179.6C212.542 179.869 212.821 180.07 213.141 180.174C213.462 180.279 213.807 180.281 214.129 180.181C214.314 180.128 214.48 180.024 214.606 179.88C214.733 179.737 214.815 179.56 214.843 179.372C214.985 179.419 215.132 179.45 215.281 179.463C215.343 179.546 215.422 179.615 215.512 179.668C215.634 179.734 215.761 179.791 215.892 179.839H216.053L216.468 179.896H216.779H217.067L217.447 179.736H217.62C217.854 179.732 218.083 179.674 218.289 179.565C218.419 179.507 218.543 179.434 218.657 179.349C218.846 179.219 219.019 179.07 219.176 178.904C219.268 178.815 219.339 178.705 219.383 178.585C219.445 178.466 219.473 178.332 219.464 178.198C219.491 178.097 219.491 177.991 219.464 177.89C219.583 177.866 219.697 177.82 219.798 177.753C220.062 177.582 220.26 177.33 220.363 177.035C220.437 176.832 220.437 176.61 220.363 176.408L220.478 176.305L220.535 176.237C220.778 176.037 221.002 175.816 221.204 175.576V175.576L221.319 175.496C221.494 175.395 221.634 175.244 221.72 175.063C221.806 174.882 221.835 174.679 221.803 174.481L221.826 174.402Z" stroke="#192229" stroke-miterlimit="10"/>
<path d="M138.064 172.612C138.124 172.293 138.083 171.963 137.949 171.666C137.845 171.452 137.681 171.273 137.477 171.147C137.273 171.022 137.037 170.957 136.797 170.959C136.734 170.769 136.61 170.605 136.443 170.492C136.277 170.378 136.077 170.322 135.875 170.332C135.438 170.366 135.004 170.423 134.573 170.503C134.375 170.44 134.161 170.44 133.962 170.503L132.81 170.788C132.704 170.761 132.593 170.761 132.488 170.788C132.139 170.831 131.793 170.891 131.45 170.971C131.302 170.942 131.149 170.942 131.001 170.971C130.25 171.108 129.521 171.345 128.835 171.677C128.648 171.528 128.418 171.44 128.178 171.427C128.025 171.318 127.842 171.26 127.654 171.26C127.466 171.26 127.282 171.318 127.129 171.427L126.968 171.552C126.835 171.565 126.708 171.612 126.599 171.689L126.242 171.94C126 171.892 125.749 171.934 125.536 172.058C125.323 172.182 125.165 172.379 125.09 172.612L124.929 173.08C124.859 173.263 124.859 173.466 124.929 173.649V173.706C124.854 173.84 124.807 173.988 124.79 174.14C124.667 174.305 124.6 174.504 124.6 174.71C124.6 174.915 124.667 175.115 124.79 175.28C124.721 175.4 124.664 175.525 124.618 175.656C124.469 176.084 124.434 176.543 124.517 176.988C124.6 177.433 124.797 177.85 125.09 178.198C125.189 178.314 125.322 178.398 125.47 178.437C125.487 178.581 125.522 178.723 125.574 178.859C125.909 179.423 126.456 179.833 127.095 179.999C127.157 180.118 127.234 180.229 127.325 180.329C127.346 180.361 127.374 180.389 127.406 180.409C127.495 180.49 127.591 180.563 127.694 180.626L127.948 180.728C127.984 180.897 128.069 181.052 128.191 181.175C128.314 181.298 128.469 181.384 128.639 181.424H128.904C130.96 181.665 133.035 181.163 134.746 180.01C135.001 179.889 135.232 179.723 135.426 179.52C135.621 179.296 135.72 179.006 135.702 178.711L135.841 178.619L135.91 178.54C136.054 178.54 136.195 178.496 136.313 178.414C136.707 178.145 136.983 177.737 137.085 177.274C137.164 177.184 137.238 177.089 137.304 176.989C137.483 176.67 137.63 176.334 137.742 175.986L137.903 175.781C137.984 175.626 138.027 175.454 138.03 175.28L138.33 173.205C138.314 172.983 138.22 172.773 138.064 172.612Z" stroke="#192229" stroke-width="0.3" stroke-miterlimit="10"/>
<path d="M114.078 176.796C120.531 174.105 127.433 171.609 134.542 171.894C140.223 172.133 146.215 174.333 149.672 178.996C150.985 180.751 153.981 178.996 152.656 177.263C148.589 171.803 142.136 169.021 135.372 168.531C127.306 167.95 119.563 170.811 112.327 173.843C111.936 174.076 111.652 174.45 111.536 174.887C111.42 175.323 111.48 175.787 111.704 176.18C111.944 176.565 112.324 176.844 112.766 176.959C113.209 177.074 113.679 177.015 114.078 176.796Z" fill="#192229"/>
<path d="M125.215 171.381C122.311 174.801 123.567 180.033 127.232 182.347C131.484 185.048 137.245 182.882 140.056 179.189C140.937 178.108 141.529 176.826 141.778 175.459C142.028 174.093 141.927 172.687 141.485 171.369C141.34 170.949 141.04 170.598 140.645 170.387C140.25 170.176 139.789 170.12 139.354 170.23C138.922 170.364 138.56 170.659 138.345 171.053C138.13 171.447 138.079 171.908 138.201 172.338C138.483 173.064 138.579 173.848 138.48 174.62C138.382 175.391 138.092 176.127 137.637 176.761C136.807 178.075 135.576 179.093 134.122 179.668C133.422 179.955 132.678 180.121 131.921 180.158C131.135 180.224 130.343 180.099 129.617 179.793C129.502 179.793 129.11 179.52 128.868 179.372C128.626 179.223 128.868 179.44 128.695 179.235C128.522 179.03 128.372 178.938 128.223 178.779C128.073 178.619 127.923 178.414 128.073 178.619C127.958 178.471 127.854 178.3 127.75 178.14C127.646 177.981 127.589 177.855 127.52 177.707C127.451 177.559 127.347 177.365 127.428 177.548C127.508 177.73 127.428 177.399 127.358 177.365C127.077 176.712 126.977 175.995 127.07 175.291C127.07 175.097 127.07 175.291 127.07 175.359L127.139 175.051C127.185 174.845 127.247 174.643 127.324 174.447C127.209 174.744 127.439 174.231 127.485 174.151L127.623 173.957C127.773 173.718 127.37 174.231 127.693 173.854C128.008 173.53 128.184 173.097 128.184 172.646C128.184 172.196 128.008 171.763 127.693 171.438C127.367 171.12 126.928 170.942 126.471 170.942C126.014 170.942 125.575 171.12 125.25 171.438L125.215 171.381Z" fill="#192229"/>
<path d="M199.126 178.904C203.77 174.741 209.769 172.364 216.034 172.205C222.299 172.046 228.414 174.116 233.267 178.038C234.973 179.429 237.427 177.024 235.71 175.61C230.232 170.987 223.226 168.522 216.027 168.684C208.829 168.846 201.943 171.624 196.683 176.488C195.035 177.981 197.478 180.386 199.126 178.904Z" fill="#192229"/>
<path d="M205.234 173.137C205.431 173.565 205.502 174.039 205.441 174.505C205.424 175.135 205.471 175.765 205.58 176.386C205.872 177.594 206.556 178.675 207.527 179.463C209.601 181.101 212.219 181.914 214.867 181.743C216.177 181.696 217.463 181.39 218.651 180.841C219.839 180.293 220.903 179.514 221.78 178.551C222.634 177.592 223.264 176.458 223.627 175.231C223.989 174.004 224.075 172.713 223.877 171.45C223.744 171.021 223.446 170.662 223.047 170.448C222.649 170.235 222.181 170.185 221.746 170.31C221.32 170.449 220.964 170.743 220.75 171.133C220.536 171.523 220.48 171.978 220.594 172.407C220.659 173.182 220.55 173.962 220.273 174.689C219.995 175.417 219.558 176.074 218.992 176.614C217.671 177.742 215.984 178.363 214.239 178.363C212.493 178.363 210.806 177.742 209.486 176.614C209.265 176.36 209.098 176.064 208.997 175.745C208.896 175.425 208.862 175.088 208.898 174.755C208.99 173.605 208.754 172.452 208.218 171.427C207.066 169.558 204.059 171.267 205.234 173.148V173.137Z" fill="#192229"/>
<path d="M98.9254 164.906C104.804 161.314 111.035 158.32 117.523 155.97C126.741 152.675 137.042 150.384 146.526 153.747C149.353 154.685 151.945 156.208 154.131 158.215C156.316 160.222 158.044 162.666 159.201 165.385C161.148 170.641 162.011 176.231 161.736 181.822C161.419 188.013 160.32 194.14 158.463 200.061C157.898 201.885 157.23 203.686 156.792 205.544C156.265 208.019 155.926 210.53 155.778 213.056C155.271 219.382 155.479 226.643 161.217 230.69C166.955 234.736 174.964 233.654 181.105 231.317C183.156 230.53 182.257 227.225 180.183 228.011C174.906 230.029 167.508 231.431 162.703 227.544C157.898 223.657 158.901 216.532 159.396 211.255C159.811 206.866 161.309 202.968 162.427 198.716C164.241 192.404 165.176 185.877 165.204 179.315C165.178 173.846 164.107 168.431 162.047 163.356C159.488 157.756 154.839 153.353 149.072 151.068C139.589 147.124 129.023 148.64 119.505 151.706C111.685 154.232 104.2 157.677 97.2085 161.966C95.3303 163.105 97.0587 166.081 98.96 164.918L98.9254 164.906Z" fill="#192229"/>
<path d="M190.127 159.275C204.773 151.912 221.988 153.428 237.647 156.072C239.813 156.437 240.758 153.143 238.557 152.766C221.907 149.962 203.989 148.503 188.388 156.323C186.406 157.315 188.146 160.267 190.127 159.275Z" fill="#192229"/>
<path d="M187.362 156.631C187.915 151.957 191.81 148.195 196.234 146.554C200.659 144.912 205.545 145.038 210.246 145.528C219.625 146.504 228.814 148.808 237.532 152.367" fill="#192229"/>
<path d="M83.1507 213.021C84.9121 218.768 85.7443 224.754 85.6166 230.758C85.4898 236.879 84.6371 242.978 85.1326 249.099C85.9968 259.768 89.8684 270.221 95.0997 279.523C104.469 296.367 119.196 309.682 136.996 317.401C152.115 323.779 168.797 325.612 184.962 322.673C201.127 319.733 216.06 312.152 227.899 300.873C235.715 293.22 242.135 284.289 246.876 274.473C251.955 264.1 256.212 253.353 259.609 242.328C263.233 230.909 266.082 219.264 268.136 207.47C268.643 204.574 269.092 201.656 269.507 198.738C269.807 196.595 266.477 195.66 266.177 197.838C263.027 220.761 256.828 243.171 247.741 264.487C243.443 274.439 238.246 284.185 231.16 292.472C220.88 304.486 207.229 313.213 191.933 317.549C176.638 321.885 160.387 321.636 145.235 316.831C127.11 311.132 111.52 298.696 101.207 282.965C95.6458 274.635 91.6885 265.36 89.5343 255.608C87.1145 243.958 90.1565 232.194 88.382 220.487C87.9547 217.676 87.3232 214.899 86.4923 212.178C85.847 210.069 82.517 210.969 83.1507 213.089V213.021Z" fill="#192229"/>
<path d="M135.752 259.29C152.921 265.97 171.265 267.269 189.39 264.294C194.56 263.425 199.661 262.199 204.658 260.624C206.766 259.962 205.81 256.657 203.736 257.329C187.777 262.356 170.32 264.055 153.796 260.931C147.943 259.813 142.207 258.16 136.662 255.996C134.6 255.186 133.701 258.492 135.752 259.29Z" fill="#192229"/>
<path d="M98.8332 163.106C102.359 155.742 109.204 150.498 116.866 147.865C121.403 146.36 126.141 145.53 130.924 145.403C135.491 145.154 140.071 145.48 144.555 146.372C146.95 146.847 149.242 147.73 151.331 148.982C152.875 149.963 155.156 152.299 153.266 154.043C151.642 155.548 154.096 157.965 155.721 156.46C156.486 155.716 157.022 154.773 157.266 153.74C157.511 152.707 157.455 151.626 157.103 150.624C156.141 148.324 154.334 146.471 152.045 145.437C147.344 142.93 141.917 142.268 136.651 142.018C126.119 141.527 115 143.26 106.242 149.427C101.812 152.464 98.2418 156.573 95.8719 161.362C94.9271 163.345 97.8999 165.078 98.8563 163.094L98.8332 163.106Z" fill="#192229"/>
<path d="M139.231 148.412L139.081 148.207C138.958 148.081 138.803 147.991 138.632 147.945L138.021 147.74C137.835 147.573 137.592 147.483 137.341 147.489C137.155 147.48 136.97 147.53 136.813 147.63C136.656 147.73 136.535 147.876 136.466 148.047C136.432 148.097 136.405 148.151 136.385 148.207V148.127L136.178 147.968C136.034 147.886 135.871 147.843 135.705 147.842C135.623 147.731 135.513 147.642 135.385 147.586C135.258 147.53 135.118 147.509 134.979 147.523L132.882 147.774C132.766 147.657 132.618 147.577 132.456 147.546C131.958 147.483 131.455 147.483 130.958 147.546C128.993 147.519 127.04 147.852 125.196 148.526C125.076 148.401 124.923 148.311 124.755 148.265C124.586 148.218 124.409 148.218 124.24 148.264L122.95 148.651C122.699 148.724 122.486 148.887 122.35 149.107L121.279 149.598L121.083 149.757C121.005 149.821 120.946 149.903 120.91 149.997C120.794 149.945 120.668 149.918 120.541 149.918C120.414 149.918 120.288 149.945 120.173 149.997L118.444 150.612C118.283 150.46 118.081 150.358 117.862 150.318C117.643 150.277 117.417 150.3 117.211 150.384L112.752 152.356C112.625 152.226 112.465 152.132 112.289 152.082C112.113 152.032 111.927 152.028 111.749 152.071L110.09 152.39C109.832 152.462 109.614 152.632 109.482 152.863C109.351 153.093 109.316 153.366 109.387 153.621L108.362 154.34L107.071 154.898C106.93 154.958 106.813 155.062 106.737 155.194C106.58 155.132 106.41 155.105 106.241 155.115C106.072 155.125 105.907 155.171 105.758 155.251C105.591 155.348 105.433 155.459 105.285 155.582L105.147 155.696C105.074 155.76 105.016 155.837 104.974 155.924L104.052 156.528C103.829 156.667 103.665 156.882 103.591 157.132C103.568 157.249 103.568 157.369 103.591 157.486C103.338 157.538 103.116 157.687 102.974 157.901C102.831 158.114 102.78 158.375 102.831 158.626C102.695 158.574 102.55 158.547 102.405 158.546C102.156 158.572 101.926 158.689 101.758 158.873C101.591 159.057 101.499 159.296 101.499 159.543C101.499 159.791 101.591 160.03 101.758 160.214C101.926 160.398 102.156 160.514 102.405 160.541C102.549 160.543 102.692 160.514 102.823 160.455C102.954 160.396 103.071 160.308 103.163 160.199C103.256 160.09 103.323 159.961 103.359 159.823C103.395 159.685 103.4 159.541 103.372 159.401C103.506 159.463 103.652 159.494 103.799 159.492C104.029 159.499 104.253 159.422 104.428 159.274C104.602 159.126 104.715 158.92 104.744 158.694C104.88 158.761 105.03 158.796 105.182 158.797H105.458C105.624 158.752 105.774 158.665 105.896 158.546L106.599 157.862L106.668 157.759L108.166 157.075H108.235C108.423 157.095 108.613 157.056 108.777 156.961L109.433 156.551C109.921 156.368 110.389 156.135 110.828 155.856C110.78 155.988 110.763 156.129 110.777 156.269C110.791 156.409 110.836 156.544 110.908 156.665C111.047 156.89 111.268 157.053 111.526 157.121C111.783 157.189 112.057 157.156 112.291 157.03L115.748 155.286C115.86 155.224 115.959 155.141 116.038 155.041C116.117 154.941 116.175 154.827 116.209 154.704C116.9 154.397 117.58 154.077 118.237 153.713L120.253 152.846C120.47 152.73 120.632 152.533 120.703 152.299C120.858 152.4 121.041 152.454 121.227 152.454C121.413 152.454 121.595 152.4 121.751 152.299C121.875 152.339 122.008 152.339 122.131 152.299L123.722 151.547C123.847 151.516 123.962 151.453 124.056 151.364C124.125 151.364 124.159 151.262 124.217 151.205C124.348 151.256 124.488 151.276 124.628 151.264C124.768 151.252 124.904 151.209 125.024 151.136L126.591 150.247C126.585 150.316 126.585 150.384 126.591 150.453C126.625 150.578 126.685 150.694 126.766 150.796C126.847 150.898 126.948 150.983 127.063 151.045C127.298 151.175 127.574 151.212 127.835 151.148L129.679 150.669C129.931 150.6 130.146 150.437 130.278 150.213C130.282 150.179 130.282 150.145 130.278 150.111L134.173 149.632L134.299 149.734C134.455 149.818 134.629 149.865 134.806 149.871H135.509C135.641 149.871 135.772 149.84 135.889 149.78C136.015 149.737 136.129 149.666 136.224 149.575C136.316 149.485 136.387 149.376 136.431 149.256L136.489 149.347C136.616 149.465 136.77 149.551 136.938 149.598L137.975 149.94C138.107 149.973 138.246 149.973 138.378 149.94C138.514 149.933 138.646 149.889 138.759 149.814C138.871 149.756 138.966 149.669 139.035 149.563C139.125 149.467 139.189 149.349 139.22 149.221V148.959C139.278 148.782 139.282 148.592 139.231 148.412Z" fill="#192229"/>
</svg>
