<svg width="289" height="282" viewBox="0 0 289 282" fill="none" xmlns="http://www.w3.org/2000/svg">
<path d="M75.5 77.5L225.5 60C236.075 93.5662 259.118 213.452 218.247 197.5C213.261 217.693 205.733 236.526 194.516 251C187.003 261.28 177.646 269.03 166 273C166 273 132.736 298.074 92 261.5C77.4906 248.473 68.1812 228.308 62.2441 205.5C20.5213 160.482 71.0487 85.9536 75.5 77.5Z" fill="#FBFBFE"/>
<path d="M287.17 89.2093C284.027 78.3636 276.578 69.4971 266.298 65.9122C266.53 61.913 266.217 57.9009 265.368 53.9859C262.578 41.08 251.945 36.2429 240.311 34.1929C237.127 24.5792 232.225 15.5814 225.15 8.94674C211.625 -3.86821 191.369 -1.74753 176.966 8.28024C176.127 8.8474 175.474 9.64795 175.086 10.5827C165.666 4.52361 154.021 2.6049 142.741 2.44333C132.634 2.30195 121.333 3.84702 113.318 9.90609C100.986 8.23985 88.1393 8.89625 76.4043 13.3295C69.8646 15.8137 65.4475 21.2972 65.0331 27.4673C57.1592 27.0028 50.579 29.4163 46.4045 37.5658C43.4632 43.3219 41.6944 49.3305 43.6148 54.5312C33.9822 55.541 24.8145 59.1462 18.9924 67.5784C11.1185 78.9796 13.7667 93.1073 17.3752 105.549C9.00598 111.153 2.3652 118.757 0.566028 129.452C-0.85916 137.944 0.566028 146.457 3.10307 154.597C4.57879 159.313 5.88269 164.907 8.88468 168.947C5.53903 173.441 4.8416 179.651 7.37863 186.175C10.2897 193.637 15.2222 202.878 22.6716 206.897C24.3899 213.784 30.495 219.015 37.0044 222.044C41.1081 223.933 45.2826 225.438 49.8715 225.074C55.1679 224.62 59.9792 222.166 65.215 221.348C65.4816 221.296 65.7448 221.229 66.0034 221.146C65.6065 218.781 65.444 216.383 65.5182 213.986C65.2876 213.235 65.2119 212.445 65.2959 211.663C65.1438 211.138 65.0722 210.594 65.0836 210.047C65.1645 206.816 64.9926 203.635 65.0836 200.434C65.0517 198.928 65.0955 197.421 65.215 195.92C64.4822 195.701 63.7079 195.659 62.9558 195.798C62.2037 195.937 61.4953 196.252 60.8889 196.718C60.6402 196.787 60.397 196.875 60.1612 196.98C52.267 200.484 52.3479 180.823 52.4793 175.693C54.5008 178.449 57.1086 181.055 60.1915 181.63C64.7703 182.489 68.4798 178.601 69.8949 174.561C71.5424 169.906 71.4009 164.291 71.6132 159.414C71.947 152.951 71.5025 146.472 70.2891 140.116C70.1941 139.651 70.0342 139.202 69.814 138.783C70.0123 137.644 69.8608 136.471 69.3794 135.42C69.3475 134.83 69.2283 134.248 69.0256 133.693C68.874 132.562 68.7123 131.451 68.5101 130.381C69.9947 129.078 71.222 127.509 72.1287 125.756C74.1502 121.716 74.5444 117.081 75.0599 112.628C75.3699 110.022 75.6765 107.417 75.9797 104.811C80.5709 106.199 85.3343 106.937 90.1305 107.003C95.619 107.003 100.157 104.226 104.645 101.348C109.398 98.4993 113.566 94.7742 116.926 90.3706C117.351 89.7748 117.735 89.1689 118.109 88.5529C126.933 89.0578 135.878 86.8362 144.389 84.4327C148.723 83.3393 152.848 81.5414 156.599 79.1108C157.468 78.7372 158.337 78.3434 159.187 77.9192C161.95 76.5662 164.602 74.9996 167.121 73.2335C167.626 72.8801 168.132 72.5065 168.597 72.1227C169.709 71.5168 170.79 70.8705 171.851 70.1636C174.836 74.5729 178.275 78.6581 182.111 82.3525C186.892 86.9473 192.219 91.33 198.394 93.7334C198.392 94.1405 198.432 94.5467 198.516 94.9452C199.456 99.3785 201.821 103.569 203.206 107.912C204.479 111.951 205.642 115.92 207.249 119.798C209.308 125.145 212.622 129.921 216.912 133.723C215.992 141.651 215.315 149.598 214.89 157.566C214.637 162.777 214.617 167.583 217.084 171.926C217.188 173.011 217.68 174.023 218.468 174.777C219.256 175.531 220.289 175.978 221.379 176.036C222.106 176.172 222.856 176.113 223.552 175.864C228.606 174.854 232.841 169.724 236.228 164.877C236.969 169.576 237.05 174.354 236.47 179.076C235.571 184.822 228 182.812 223.987 181.499C223.6 181.373 223.2 181.292 222.794 181.257C222.814 182.519 222.42 183.753 221.672 184.771C221.672 184.771 221.672 184.842 221.48 185.104V185.225C221.319 185.65 221.157 186.084 221.005 186.518C220.593 187.766 220.255 189.037 219.995 190.325C219.814 191.085 219.434 191.782 218.893 192.345C219.001 192.722 219.132 193.116 219.287 193.526C218.337 196.798 217.458 200.08 216.619 203.382C216.771 204.096 216.748 204.836 216.553 205.54C216.358 206.243 215.995 206.888 215.497 207.422C215.497 207.493 215.446 207.553 215.426 207.614C215.294 208.078 215.193 208.553 215.072 209.028C214.791 210.178 214.388 211.295 213.869 212.36C214.164 213.348 214.766 214.216 215.587 214.841C216.408 215.465 217.406 215.813 218.438 215.834C229.081 216.319 242.04 216.672 250.864 209.775C257.797 204.402 265.944 195.506 266.146 186.205C272.373 182.772 278.69 177.328 281.49 170.865C283.926 165.21 282.996 159.484 281.065 154.011C285.346 149.693 288.061 144.071 288.778 138.035C289.617 130.714 287.403 124.604 283.724 118.848C289.9 110.709 290.092 99.1967 287.17 89.2093Z" fill="#192229"/>
<path d="M106.131 142.701C105.612 142.7 105.094 142.772 104.595 142.913H104.372C103.324 142.888 102.295 143.203 101.441 143.812C96.1244 144.943 96.5085 153.789 102.603 153.789C103.652 153.815 104.681 153.5 105.535 152.891C105.636 152.891 105.717 152.83 105.818 152.8H106.131C112.64 152.8 112.651 142.701 106.131 142.701Z" fill="#192229"/>
<path d="M178.907 142.893C177.883 142.867 176.877 143.167 176.036 143.752C170.467 144.65 170.75 153.769 176.946 153.769C177.969 153.794 178.974 153.493 179.816 152.911C185.396 152.012 185.103 142.893 178.907 142.893Z" fill="#192229"/>
<path d="M130.875 135.723C130.879 135.68 130.879 135.636 130.875 135.592C130.198 133.654 129.338 131.784 128.307 130.008C127.875 128.846 127.298 127.743 126.589 126.726C126.466 126.528 126.271 126.385 126.045 126.327C125.82 126.269 125.58 126.3 125.376 126.413C125.311 126.445 125.253 126.489 125.204 126.544C125.171 126.539 125.137 126.539 125.103 126.544H124.871C124.751 126.574 124.64 126.633 124.547 126.716C124.533 126.639 124.509 126.564 124.477 126.493C124.507 126.455 124.528 126.41 124.537 126.362C124.595 126.261 124.623 126.145 124.618 126.029V125.786C124.634 125.703 124.634 125.617 124.618 125.534C124.554 125.312 124.41 125.121 124.214 124.999C123.941 124.857 123.658 124.726 123.375 124.605C123.275 124.401 123.133 124.221 122.959 124.075C122.785 123.928 122.582 123.82 122.364 123.757C121.717 123.545 121.07 123.363 120.413 123.181C120.361 123.06 120.283 122.951 120.186 122.863C120.088 122.774 119.973 122.707 119.847 122.666C119.778 122.641 119.707 122.621 119.635 122.605C119.622 122.443 119.554 122.29 119.442 122.173C119.329 122.055 119.18 121.98 119.018 121.959L118.22 121.858C118.108 121.801 117.982 121.773 117.856 121.777H117.25H116.795C116.785 121.611 116.719 121.453 116.606 121.33C116.494 121.207 116.343 121.126 116.178 121.101C114.973 120.893 113.752 120.795 112.529 120.808C112.45 120.741 112.358 120.691 112.259 120.66C112.16 120.629 112.056 120.617 111.953 120.626C111.043 120.626 110.134 120.737 109.234 120.818C109.106 120.731 108.955 120.682 108.8 120.677C108.375 120.677 107.961 120.677 107.546 120.677C107.523 120.461 107.424 120.26 107.266 120.111C107.109 119.961 106.904 119.872 106.687 119.859C103.948 119.754 101.212 120.126 98.6008 120.959C98.403 121.04 98.2357 121.181 98.1231 121.362C98.0105 121.544 97.9584 121.756 97.9742 121.969C97.8718 121.837 97.7334 121.737 97.5756 121.682C97.4178 121.626 97.2474 121.617 97.0847 121.656C96.5995 121.767 96.0739 121.909 95.6292 122.06C95.5298 121.973 95.408 121.916 95.2776 121.894C95.1472 121.873 95.0134 121.888 94.8913 121.939C93.9614 122.282 93.0517 122.666 92.1521 123.07C92.0566 122.924 91.9159 122.814 91.7517 122.755C91.5874 122.697 91.4086 122.694 91.2424 122.747C89.0133 123.43 86.9489 124.564 85.1778 126.079C85.0758 125.997 84.9547 125.942 84.8257 125.919C84.6967 125.896 84.564 125.906 84.4399 125.948C83.3021 126.365 82.2403 126.966 81.2964 127.725C81.2123 127.806 81.1456 127.904 81.1004 128.011C81.0552 128.119 81.0325 128.235 81.0336 128.351C81.0336 128.351 81.0336 128.412 81.0336 128.442H80.9831L80.0734 129.139C79.9718 129.191 79.8849 129.267 79.8207 129.361C79.7467 129.449 79.6947 129.553 79.6691 129.664C79.6339 129.779 79.6339 129.903 79.6691 130.018V130.018L78.6583 130.846H78.5572C78.3829 130.851 78.2139 130.907 78.0709 131.007C77.9278 131.107 77.8169 131.246 77.7515 131.407C77.6862 131.569 77.6693 131.746 77.7029 131.917C77.7364 132.088 77.8191 132.246 77.9407 132.371L77.2634 132.956C77.1793 133.037 77.1126 133.135 77.0674 133.242C77.0223 133.35 76.9995 133.466 77.0006 133.582C76.987 133.659 76.987 133.738 77.0006 133.815C76.9752 133.931 76.9752 134.052 77.0006 134.168L76.8187 134.31C76.6176 134.388 76.4425 134.521 76.3133 134.693L75.4946 135.784C75.3861 135.969 75.3489 136.186 75.3898 136.396C75.4308 136.607 75.5471 136.795 75.717 136.925C75.8868 137.055 76.0979 137.119 76.3113 137.106C76.5248 137.093 76.7265 137.004 76.8793 136.854C78.5853 134.906 80.437 133.09 82.4184 131.421L82.7924 131.199L83.2472 130.937C83.3663 130.982 83.4949 130.995 83.6207 130.975C83.7464 130.956 83.865 130.904 83.9649 130.826L84.1468 130.704C84.452 130.665 84.7509 130.587 85.0363 130.472C85.78 130.174 86.4124 129.651 86.8456 128.978C86.8838 128.921 86.9144 128.86 86.9365 128.796L88.4325 127.786C88.4872 127.881 88.5611 127.964 88.6495 128.03C88.7379 128.095 88.8389 128.142 88.9461 128.167C89.0534 128.191 89.1646 128.193 89.2727 128.173C89.3809 128.153 89.4837 128.11 89.5747 128.049L91.8186 126.655L92.6272 126.211C92.7585 126.338 92.9248 126.423 93.1048 126.456C93.2849 126.488 93.4705 126.466 93.638 126.392L93.8401 126.301C93.9149 126.5 94.0573 126.665 94.2423 126.768C94.4272 126.872 94.6427 126.907 94.8509 126.867C96.0228 126.664 97.1227 126.163 98.0449 125.413C98.267 125.477 98.5052 125.455 98.712 125.352L99.834 124.817C99.918 125.001 100.071 125.145 100.259 125.219C100.448 125.292 100.658 125.29 100.845 125.211L101.856 124.867C102.141 124.717 102.448 124.612 102.765 124.554H103.018C103.063 124.725 103.169 124.874 103.316 124.973C103.463 125.071 103.641 125.113 103.816 125.09L108.335 124.797C108.463 124.863 108.605 124.898 108.749 124.898C108.843 124.914 108.938 124.914 109.032 124.898L110.75 125.049C110.844 125.09 110.943 125.121 111.043 125.14C111.119 125.199 111.204 125.244 111.296 125.271C111.761 125.399 112.234 125.497 112.711 125.564C113.095 125.746 113.49 125.908 113.884 126.049C113.921 126.204 113.999 126.346 114.109 126.461C114.219 126.576 114.358 126.66 114.51 126.705C115.137 126.884 115.79 126.959 116.441 126.928L119.029 127.231H119.15C119.178 127.392 119.252 127.541 119.363 127.661C119.474 127.781 119.618 127.867 119.777 127.907L120.868 128.079C120.859 128.277 120.915 128.472 121.029 128.635C121.142 128.797 121.306 128.918 121.495 128.978C122.063 129.15 122.65 129.252 123.243 129.281C123.264 129.316 123.287 129.35 123.314 129.381L123.436 129.503C123.574 129.626 123.731 129.729 123.9 129.806C123.996 129.858 124.098 129.899 124.204 129.927C124.264 130.079 124.371 130.208 124.509 130.297C124.646 130.385 124.808 130.429 124.972 130.422C125.116 130.429 125.26 130.396 125.387 130.327C125.514 130.257 125.618 130.154 125.69 130.028V131.139C125.693 131.336 125.761 131.528 125.882 131.684L126.003 132.037C126.027 132.151 126.084 132.256 126.165 132.34C126.224 132.437 126.308 132.517 126.407 132.573C126.471 132.608 126.539 132.635 126.609 132.653C126.688 132.747 126.788 132.821 126.9 132.87C127.012 132.919 127.134 132.942 127.256 132.936L127.327 133.199C127.363 133.321 127.425 133.435 127.509 133.532C127.557 133.672 127.649 133.793 127.772 133.875C128.126 135.057 128.52 136.228 128.964 137.379C129.037 137.6 129.183 137.789 129.379 137.915C129.523 137.988 129.682 138.026 129.844 138.026C129.839 138.066 129.839 138.107 129.844 138.147C129.844 138.228 129.844 138.309 129.844 138.389V138.45C129.856 138.683 129.949 138.904 130.107 139.076C130.274 139.241 130.498 139.335 130.733 139.339C131.158 139.339 131.673 138.945 131.613 138.45C131.49 137.512 131.242 136.595 130.875 135.723Z" fill="#192229"/>
<path d="M184.102 147.488C184.358 146.805 184.425 146.065 184.294 145.347C184.233 145.126 184.088 144.938 183.89 144.822C183.81 144.781 183.725 144.751 183.637 144.731C183.601 144.453 183.488 144.19 183.309 143.974C183.13 143.758 182.893 143.597 182.626 143.509C182.02 143.383 181.393 143.383 180.787 143.509L179.715 143.641C179.613 143.557 179.49 143.505 179.36 143.489C179.229 143.473 179.096 143.494 178.977 143.55L177.967 143.943L176.956 144.166C176.796 144.208 176.652 144.295 176.541 144.418V144.418C176.426 144.388 176.304 144.388 176.188 144.418C175.956 144.449 175.729 144.507 175.51 144.59C175.223 144.694 174.949 144.829 174.692 144.994C174.584 145.066 174.491 145.159 174.419 145.266C174.301 145.287 174.191 145.336 174.095 145.408L174.015 145.468C173.941 145.458 173.866 145.458 173.792 145.468C173.686 145.413 173.568 145.385 173.449 145.385C173.329 145.385 173.211 145.413 173.105 145.468V145.468L172.953 145.408C172.786 145.27 172.572 145.199 172.355 145.21C172.138 145.222 171.933 145.314 171.781 145.468L171.477 145.862C171.386 145.979 171.321 146.115 171.288 146.26C171.255 146.405 171.254 146.555 171.285 146.7C171.256 146.768 171.236 146.839 171.225 146.912C171.168 146.882 171.107 146.861 171.043 146.852C171.015 146.801 170.981 146.753 170.942 146.71C170.904 146.658 170.864 146.607 170.821 146.559L170.608 146.397C170.508 146.334 170.393 146.299 170.275 146.296C170.159 146.261 170.036 146.261 169.921 146.296C169.81 146.315 169.708 146.368 169.628 146.448C169.53 146.511 169.451 146.598 169.395 146.7L169.304 146.912C169.264 147.065 169.264 147.225 169.304 147.377L169.395 147.589C169.427 147.643 169.464 147.694 169.506 147.74C169.502 147.771 169.502 147.801 169.506 147.831C169.514 147.949 169.548 148.063 169.608 148.165L169.699 148.255C169.699 148.255 169.699 148.336 169.699 148.377C169.754 148.552 169.818 148.723 169.891 148.892C170.015 149.162 170.182 149.411 170.386 149.629V149.629C170.423 149.731 170.482 149.824 170.558 149.902C170.615 150.002 170.694 150.088 170.788 150.154C170.882 150.22 170.99 150.265 171.104 150.285L171.275 150.406C171.371 150.471 171.483 150.51 171.599 150.518C171.715 150.548 171.837 150.548 171.953 150.518L172.104 150.467C172.296 150.787 172.542 151.071 172.832 151.305L172.913 151.406C173.072 151.554 173.262 151.664 173.469 151.729H173.56C173.667 151.745 173.776 151.745 173.883 151.729C174.025 151.728 174.166 151.701 174.298 151.649V151.649H174.389C174.499 151.659 174.611 151.659 174.722 151.649H174.995C175.066 151.679 175.141 151.7 175.217 151.709C175.328 151.72 175.44 151.72 175.551 151.709H175.642C175.668 151.844 175.715 151.974 175.783 152.093C175.958 152.332 176.203 152.51 176.484 152.602C176.765 152.694 177.068 152.696 177.35 152.608C177.512 152.561 177.658 152.469 177.769 152.342C177.88 152.214 177.952 152.058 177.977 151.891C178.101 151.933 178.23 151.96 178.361 151.972C178.415 152.045 178.484 152.107 178.563 152.154C178.67 152.212 178.782 152.263 178.897 152.305H179.038L179.402 152.355H179.675H179.928L180.261 152.214H180.413C180.617 152.211 180.818 152.159 180.999 152.063C181.114 152.011 181.222 151.946 181.322 151.871C181.488 151.756 181.64 151.624 181.777 151.477C181.858 151.397 181.921 151.301 181.959 151.194C182.014 151.088 182.038 150.97 182.03 150.851C182.054 150.762 182.054 150.667 182.03 150.578C182.135 150.557 182.234 150.516 182.323 150.457C182.554 150.306 182.729 150.082 182.818 149.821C182.883 149.641 182.883 149.445 182.818 149.265L182.919 149.174L182.97 149.114C183.183 148.937 183.379 148.741 183.556 148.528V148.528L183.657 148.457C183.811 148.368 183.933 148.234 184.009 148.074C184.085 147.913 184.11 147.734 184.082 147.559L184.102 147.488Z" stroke="#192229" stroke-miterlimit="10"/>
<path d="M109.942 145.903C109.994 145.619 109.958 145.327 109.841 145.064C109.749 144.875 109.605 144.716 109.426 144.605C109.247 144.494 109.04 144.436 108.83 144.438V144.438C108.775 144.27 108.666 144.124 108.52 144.024C108.373 143.924 108.198 143.874 108.021 143.883C107.638 143.913 107.257 143.963 106.879 144.034C106.705 143.978 106.517 143.978 106.343 144.034L105.333 144.287C105.24 144.262 105.142 144.262 105.05 144.287C104.744 144.324 104.44 144.378 104.14 144.448C104.01 144.423 103.876 144.423 103.746 144.448C103.087 144.57 102.447 144.78 101.845 145.075C101.681 144.942 101.48 144.865 101.269 144.852C101.135 144.756 100.974 144.704 100.809 144.704C100.644 144.704 100.484 144.756 100.349 144.852L100.208 144.963C100.091 144.975 99.9798 145.017 99.8845 145.085L99.5712 145.307C99.3588 145.264 99.1383 145.302 98.9518 145.412C98.7653 145.522 98.6259 145.696 98.5604 145.903L98.4189 146.317C98.3576 146.479 98.3576 146.659 98.4189 146.822V146.872C98.3531 146.991 98.3119 147.121 98.2976 147.256C98.1893 147.402 98.1308 147.579 98.1308 147.761C98.1308 147.943 98.1893 148.12 98.2976 148.266C98.2371 148.372 98.1863 148.483 98.146 148.599C98.0155 148.978 97.985 149.385 98.0576 149.779C98.1302 150.174 98.3034 150.543 98.5604 150.851C98.6472 150.954 98.7636 151.028 98.894 151.063C98.9087 151.191 98.9393 151.316 98.9849 151.437C99.2786 151.936 99.7583 152.299 100.319 152.446C100.374 152.552 100.442 152.651 100.521 152.739C100.539 152.768 100.564 152.792 100.592 152.81C100.67 152.882 100.755 152.946 100.845 153.002L101.067 153.093C101.099 153.242 101.174 153.379 101.281 153.488C101.388 153.598 101.525 153.674 101.674 153.709H101.906C103.71 153.922 105.53 153.478 107.031 152.456C107.254 152.35 107.457 152.202 107.627 152.022C107.798 151.824 107.885 151.567 107.87 151.305L107.991 151.224L108.052 151.154C108.178 151.154 108.302 151.115 108.405 151.043C108.751 150.804 108.993 150.443 109.083 150.033C109.152 149.953 109.216 149.869 109.275 149.78C109.432 149.498 109.56 149.2 109.659 148.892V148.892L109.8 148.71C109.871 148.572 109.909 148.42 109.911 148.266L110.174 146.428C110.16 146.231 110.078 146.045 109.942 145.903Z" stroke="#192229" stroke-miterlimit="10"/>
<path d="M89.5847 149.609C95.2451 147.225 101.3 145.014 107.536 145.266C112.519 145.478 117.775 147.427 120.808 151.558C121.96 153.113 124.588 151.558 123.425 150.023C119.857 145.186 114.197 142.722 108.264 142.287C101.188 141.772 94.396 144.307 88.0484 146.993C87.7055 147.199 87.4565 147.531 87.3546 147.918C87.2527 148.304 87.3058 148.715 87.5026 149.063C87.7125 149.405 88.0462 149.652 88.4341 149.754C88.822 149.855 89.2342 149.803 89.5847 149.609V149.609Z" fill="#192229"/>
<path d="M97.7013 144.812C95.1541 147.841 96.2559 152.477 99.4701 154.527C103.2 156.92 108.254 155.001 110.72 151.729C111.492 150.772 112.012 149.636 112.231 148.425C112.45 147.215 112.361 145.969 111.973 144.802C111.846 144.429 111.583 144.119 111.236 143.932C110.889 143.744 110.485 143.695 110.103 143.792C109.725 143.911 109.408 144.173 109.219 144.521C109.03 144.87 108.985 145.279 109.093 145.66C109.34 146.304 109.424 146.998 109.337 147.681C109.251 148.365 108.997 149.017 108.597 149.578C107.87 150.742 106.79 151.644 105.515 152.154C104.901 152.408 104.248 152.555 103.584 152.588C102.894 152.646 102.2 152.535 101.562 152.265C101.461 152.265 101.118 152.022 100.905 151.891C100.693 151.76 100.905 151.952 100.754 151.77C100.602 151.588 100.471 151.507 100.339 151.366C100.208 151.224 100.077 151.043 100.208 151.224C100.107 151.093 100.016 150.942 99.925 150.8C99.834 150.659 99.7835 150.548 99.7228 150.417C99.6622 150.285 99.5712 150.114 99.6419 150.275C99.7127 150.437 99.6419 150.144 99.5813 150.114C99.3343 149.535 99.247 148.9 99.3286 148.276C99.3286 148.104 99.3286 148.276 99.3286 148.336L99.3893 148.064C99.4292 147.881 99.4832 147.702 99.551 147.528C99.4499 147.791 99.652 147.337 99.6925 147.266L99.8138 147.094C99.9452 146.882 99.5914 147.337 99.8744 147.003C100.151 146.716 100.306 146.332 100.306 145.933C100.306 145.534 100.151 145.15 99.8744 144.862C99.5888 144.581 99.204 144.424 98.803 144.424C98.402 144.424 98.0172 144.581 97.7316 144.862L97.7013 144.812Z" fill="#192229"/>
<path d="M164.19 151.477C168.263 147.789 173.526 145.683 179.022 145.542C184.518 145.401 189.882 147.235 194.139 150.709C195.635 151.941 197.788 149.811 196.282 148.558C191.477 144.463 185.33 142.279 179.016 142.422C172.702 142.566 166.661 145.027 162.047 149.336C160.602 150.659 162.744 152.79 164.19 151.477V151.477Z" fill="#192229"/>
<path d="M169.547 146.367C169.72 146.746 169.783 147.166 169.729 147.579C169.714 148.137 169.755 148.695 169.85 149.245C170.107 150.316 170.707 151.273 171.558 151.972C173.378 153.422 175.674 154.143 177.997 153.991C179.146 153.95 180.275 153.678 181.317 153.193C182.358 152.707 183.292 152.017 184.062 151.164C184.811 150.314 185.363 149.31 185.681 148.222C185.999 147.135 186.074 145.992 185.901 144.873C185.784 144.493 185.523 144.174 185.173 143.985C184.823 143.797 184.413 143.752 184.031 143.863C183.658 143.986 183.346 144.247 183.158 144.592C182.97 144.937 182.921 145.341 183.021 145.721C183.078 146.407 182.982 147.098 182.739 147.742C182.496 148.387 182.112 148.969 181.616 149.447C180.457 150.447 178.977 150.997 177.446 150.997C175.915 150.997 174.435 150.447 173.277 149.447C173.083 149.223 172.937 148.961 172.848 148.677C172.76 148.394 172.73 148.096 172.761 147.801C172.841 146.782 172.635 145.76 172.165 144.852C171.154 143.196 168.516 144.711 169.547 146.377V146.367Z" fill="#192229"/>
<path d="M76.2931 139.076C81.4494 135.893 86.9153 133.241 92.6069 131.159C100.693 128.24 109.729 126.211 118.048 129.19C120.528 130.021 122.802 131.37 124.719 133.148C126.636 134.926 128.152 137.091 129.167 139.5C130.875 144.157 131.631 149.108 131.39 154.062C131.113 159.547 130.148 164.975 128.52 170.22C128.024 171.835 127.438 173.431 127.054 175.077C126.591 177.27 126.294 179.495 126.165 181.732C125.72 187.337 125.902 193.769 130.935 197.354C135.969 200.939 142.994 199.98 148.381 197.91C150.181 197.213 149.392 194.284 147.573 194.981C142.943 196.769 136.454 198.011 132.239 194.567C128.024 191.123 128.904 184.812 129.338 180.136C129.702 176.248 131.016 172.795 131.997 169.028C133.588 163.436 134.408 157.654 134.433 151.84C134.41 146.996 133.47 142.199 131.663 137.703C129.419 132.741 125.341 128.84 120.282 126.816C111.963 123.322 102.694 124.666 94.3455 127.382C87.4859 129.62 80.9196 132.671 74.787 136.471C73.1395 137.48 74.6556 140.116 76.3234 139.086L76.2931 139.076Z" fill="#192229"/>
<path d="M156.296 134.087C169.143 127.564 184.244 128.907 197.98 131.25C199.88 131.573 200.709 128.654 198.778 128.321C184.173 125.837 168.455 124.544 154.769 131.472C153.031 132.35 154.557 134.966 156.296 134.087Z" fill="#192229"/>
<path d="M153.87 131.745C154.355 127.604 157.771 124.272 161.653 122.817C165.534 121.363 169.82 121.474 173.944 121.909C182.171 122.774 190.232 124.814 197.879 127.968" fill="#192229"/>
<path d="M62.4556 181.702C64.0007 186.793 64.7307 192.096 64.6187 197.415C64.5075 202.838 63.7595 208.24 64.1942 213.663C64.9522 223.115 68.3484 232.376 72.9373 240.616C81.1564 255.539 94.075 267.334 109.689 274.173C122.951 279.823 137.585 281.447 151.765 278.843C165.945 276.239 179.044 269.522 189.429 259.53C196.285 252.751 201.917 244.838 206.076 236.142C210.531 226.953 214.265 217.432 217.245 207.665C220.424 197.549 222.923 187.232 224.725 176.784C225.17 174.219 225.564 171.633 225.928 169.048C226.191 167.15 223.269 166.322 223.007 168.25C220.243 188.558 214.805 208.412 206.834 227.296C203.064 236.112 198.506 244.746 192.289 252.088C183.272 262.731 171.297 270.463 157.88 274.304C144.463 278.146 130.207 277.924 116.916 273.668C101.017 268.619 87.3408 257.602 78.2944 243.666C73.4163 236.286 69.945 228.069 68.0553 219.429C65.9327 209.109 68.6011 198.687 67.0445 188.316C66.6697 185.826 66.1157 183.365 65.3869 180.954C64.8208 179.086 61.8997 179.884 62.4556 181.762V181.702Z" fill="#192229"/>
<path d="M108.597 222.691C123.658 228.609 139.749 229.76 155.649 227.124C160.184 226.355 164.659 225.268 169.042 223.873C170.891 223.287 170.052 220.359 168.233 220.954C154.234 225.408 138.921 226.912 124.426 224.145C119.292 223.154 114.26 221.691 109.396 219.773C107.587 219.056 106.798 221.984 108.597 222.691V222.691Z" fill="#192229"/>
<path d="M76.2122 137.48C79.3052 130.957 85.3092 126.312 92.0308 123.979C96.0104 122.645 100.166 121.91 104.362 121.798C108.368 121.577 112.386 121.866 116.32 122.656C118.42 123.077 120.431 123.859 122.263 124.968C123.617 125.837 125.619 127.907 123.961 129.452C122.536 130.785 124.689 132.926 126.114 131.593C126.785 130.934 127.255 130.099 127.47 129.183C127.685 128.268 127.635 127.311 127.327 126.423C126.483 124.385 124.897 122.743 122.89 121.828C118.766 119.606 114.005 119.02 109.386 118.798C100.147 118.364 90.3934 119.899 82.7115 125.362C78.8253 128.053 75.6935 131.693 73.6146 135.935C72.7857 137.693 75.3935 139.227 76.2325 137.47L76.2122 137.48Z" fill="#192229"/>
<path d="M111.65 124.464L111.518 124.282C111.41 124.171 111.274 124.09 111.124 124.05L110.589 123.868C110.426 123.72 110.212 123.641 109.992 123.646C109.829 123.638 109.667 123.682 109.529 123.77C109.391 123.859 109.285 123.988 109.224 124.14C109.194 124.184 109.171 124.232 109.153 124.282V124.211L108.971 124.07C108.845 123.998 108.702 123.96 108.557 123.959C108.485 123.86 108.388 123.782 108.276 123.732C108.165 123.682 108.042 123.663 107.92 123.676L106.081 123.898C105.979 123.795 105.849 123.724 105.707 123.696C105.27 123.641 104.829 123.641 104.393 123.696V123.696C102.669 123.673 100.956 123.967 99.3387 124.565C99.2328 124.454 99.099 124.374 98.9513 124.333C98.8036 124.292 98.6475 124.292 98.4997 124.332L97.3677 124.676C97.1483 124.74 96.9609 124.884 96.8421 125.08V125.08L95.9021 125.514L95.7302 125.655C95.6623 125.712 95.6101 125.785 95.5786 125.867C95.4769 125.822 95.3667 125.798 95.2552 125.798C95.1437 125.798 95.0334 125.822 94.9317 125.867L93.4156 126.413C93.2741 126.278 93.0966 126.188 92.9047 126.152C92.7128 126.116 92.5146 126.136 92.334 126.211L88.4224 127.958C88.3106 127.843 88.1706 127.759 88.0163 127.714C87.862 127.67 87.6989 127.667 87.543 127.705L86.0875 127.988C85.8614 128.052 85.6697 128.202 85.5542 128.406C85.4386 128.611 85.4087 128.852 85.4709 129.079L84.5713 129.715L83.4392 130.21C83.3154 130.263 83.2125 130.355 83.1461 130.472C83.008 130.417 82.8594 130.393 82.7109 130.401C82.5624 130.41 82.4176 130.452 82.287 130.523C82.1409 130.608 82.0023 130.706 81.8725 130.815L81.7513 130.916C81.6875 130.973 81.6359 131.042 81.5996 131.118L80.791 131.654C80.5949 131.776 80.451 131.967 80.3867 132.189C80.3665 132.292 80.3665 132.399 80.3867 132.502C80.1646 132.548 79.9698 132.68 79.8448 132.869C79.7198 133.059 79.6748 133.29 79.7196 133.512C79.6002 133.466 79.4735 133.442 79.3456 133.441C79.1274 133.464 78.9254 133.568 78.7787 133.731C78.632 133.894 78.5508 134.105 78.5508 134.325C78.5508 134.544 78.632 134.756 78.7787 134.919C78.9254 135.082 79.1274 135.185 79.3456 135.208C79.4721 135.211 79.5976 135.185 79.7127 135.132C79.8279 135.08 79.9299 135.003 80.0113 134.906C80.0927 134.809 80.1514 134.695 80.1831 134.573C80.2148 134.45 80.2188 134.323 80.1947 134.198C80.3116 134.253 80.4395 134.281 80.5687 134.279C80.7701 134.286 80.9668 134.217 81.1202 134.086C81.2735 133.955 81.3724 133.772 81.3975 133.572C81.5167 133.632 81.6482 133.663 81.7816 133.663H82.0242C82.1693 133.624 82.3016 133.547 82.4083 133.441L83.0248 132.835L83.0855 132.744L84.3995 132.138H84.4601C84.6252 132.156 84.7917 132.121 84.9352 132.037L85.5113 131.674C85.9393 131.511 86.3492 131.305 86.7344 131.058C86.6928 131.175 86.6775 131.3 86.6898 131.424C86.702 131.548 86.7414 131.668 86.8051 131.775C86.927 131.974 87.121 132.119 87.3469 132.179C87.5727 132.239 87.813 132.21 88.018 132.098L91.0504 130.553C91.1489 130.499 91.2355 130.425 91.3049 130.336C91.3744 130.248 91.4253 130.146 91.4547 130.038C92.0611 129.765 92.6575 129.482 93.2336 129.159L95.0025 128.392C95.1929 128.289 95.3346 128.114 95.3967 127.907C95.5333 127.997 95.6932 128.044 95.8566 128.044C96.02 128.044 96.1798 127.997 96.3165 127.907V127.907C96.4248 127.943 96.5417 127.943 96.65 127.907L98.0449 127.241C98.1551 127.213 98.2562 127.158 98.338 127.079C98.3987 127.079 98.429 126.988 98.4795 126.938C98.5941 126.983 98.7177 127.001 98.8404 126.99C98.9632 126.98 99.0818 126.941 99.1871 126.877L100.562 126.089C100.557 126.15 100.557 126.211 100.562 126.271C100.592 126.382 100.644 126.486 100.716 126.576C100.787 126.666 100.875 126.741 100.976 126.796C101.182 126.911 101.424 126.944 101.653 126.887L103.271 126.463C103.492 126.402 103.68 126.257 103.796 126.059C103.8 126.029 103.8 125.998 103.796 125.968V125.968L107.213 125.544L107.324 125.635C107.461 125.709 107.613 125.751 107.769 125.756H108.385C108.501 125.756 108.615 125.728 108.719 125.675C108.828 125.637 108.928 125.575 109.012 125.494C109.093 125.414 109.155 125.318 109.194 125.211L109.244 125.292C109.356 125.396 109.491 125.473 109.638 125.514L110.548 125.817C110.664 125.847 110.786 125.847 110.902 125.817C111.021 125.811 111.136 125.772 111.235 125.706C111.334 125.654 111.418 125.577 111.478 125.484C111.557 125.398 111.613 125.294 111.64 125.181V124.948C111.691 124.791 111.694 124.623 111.65 124.464V124.464Z" fill="#192229"/>
</svg>
