<svg width="64" height="64" viewBox="0 0 64 64" fill="none" xmlns="http://www.w3.org/2000/svg">
<path d="M31.9914 15.5809C22.9054 15.5809 15.5726 22.9139 15.5726 32C15.5726 41.0861 22.9054 48.4191 31.9914 48.4191C41.0774 48.4191 48.4102 41.0861 48.4102 32C48.4102 22.9139 41.0774 15.5809 31.9914 15.5809ZM31.9914 42.6712C26.1155 42.6712 21.3204 37.876 21.3204 32C21.3204 26.124 26.1155 21.3288 31.9914 21.3288C37.8673 21.3288 42.6624 26.124 42.6624 32C42.6624 37.876 37.8673 42.6712 31.9914 42.6712ZM49.0826 11.0819C46.9612 11.0819 45.2481 12.795 45.2481 14.9165C45.2481 17.0379 46.9612 18.751 49.0826 18.751C51.204 18.751 52.9172 17.0459 52.9172 14.9165C52.9178 14.4127 52.819 13.9138 52.6266 13.4483C52.4341 12.9828 52.1516 12.5598 51.7955 12.2036C51.4393 11.8474 51.0163 11.565 50.5508 11.3725C50.0853 11.18 49.5864 11.0812 49.0826 11.0819V11.0819ZM63.9964 32C63.9964 27.581 64.0365 23.2021 63.7883 18.7911C63.5401 13.6676 62.3714 9.12054 58.6249 5.37401C54.8704 1.61947 50.3314 0.458689 45.2081 0.210522C40.7892 -0.037646 36.4103 0.00238116 31.9994 0.00238116C27.5805 0.00238116 23.2016 -0.037646 18.7907 0.210522C13.6674 0.458689 9.12037 1.62748 5.37391 5.37401C1.61944 9.12855 0.458681 13.6676 0.210518 18.7911C-0.0376453 23.2101 0.00238112 27.589 0.00238112 32C0.00238112 36.411 -0.0376453 40.7979 0.210518 45.2089C0.458681 50.3324 1.62745 54.8795 5.37391 58.626C9.12838 62.3805 13.6674 63.5413 18.7907 63.7895C23.2096 64.0376 27.5885 63.9976 31.9994 63.9976C36.4183 63.9976 40.7972 64.0376 45.2081 63.7895C50.3314 63.5413 54.8784 62.3725 58.6249 58.626C62.3794 54.8715 63.5401 50.3324 63.7883 45.2089C64.0445 40.7979 63.9964 36.419 63.9964 32V32ZM56.9518 50.8768C56.3674 52.3337 55.663 53.4225 54.5342 54.5432C53.4055 55.672 52.3248 56.3765 50.8678 56.9609C46.657 58.634 36.6585 58.2577 31.9914 58.2577C27.3243 58.2577 17.3178 58.634 13.107 56.9689C11.65 56.3845 10.5613 55.68 9.44058 54.5512C8.31184 53.4225 7.60738 52.3417 7.02299 50.8848C5.3579 46.6659 5.73415 36.6672 5.73415 32C5.73415 27.3328 5.3579 17.3261 7.02299 13.1152C7.60738 11.6583 8.31184 10.5695 9.44058 9.44876C10.5693 8.32801 11.65 7.61553 13.107 7.03113C17.3178 5.36601 27.3243 5.74226 31.9914 5.74226C36.6585 5.74226 46.665 5.36601 50.8758 7.03113C52.3328 7.61553 53.4215 8.32 54.5422 9.44876C55.671 10.5775 56.3754 11.6583 56.9598 13.1152C58.6249 17.3261 58.2487 27.3328 58.2487 32C58.2487 36.6672 58.6249 46.6659 56.9518 50.8768Z" fill="#A4A4A7"/>
</svg>
