<svg width="203" height="44" viewBox="0 0 203 44" fill="none" xmlns="http://www.w3.org/2000/svg">
<path d="M51.64 17.96C51.448 18.776 51.192 19.52 50.872 20.192C50.552 20.848 50.136 21.416 49.624 21.896C49.112 22.36 48.48 22.72 47.728 22.976C46.976 23.216 46.064 23.336 44.992 23.336C44.128 23.336 43.304 23.208 42.52 22.952C41.752 22.68 41.072 22.32 40.48 21.872L42.136 19.088C42.52 19.36 42.936 19.6 43.384 19.808C43.848 20.016 44.392 20.12 45.016 20.12C45.464 20.12 45.848 20.072 46.168 19.976C46.504 19.864 46.792 19.696 47.032 19.472C47.272 19.232 47.472 18.928 47.632 18.56C47.808 18.192 47.96 17.744 48.088 17.216L50.68 6.368H54.424L51.64 17.96ZM67.807 6.368H71.551L67.543 23H63.799L65.503 15.92H59.599L57.895 23H54.175L58.159 6.368H61.903L60.367 12.752H66.271L67.807 6.368ZM82.2758 23C82.2438 22.376 82.2038 21.768 82.1558 21.176C82.1238 20.568 82.0838 19.968 82.0358 19.376H75.7958C75.4758 19.968 75.1398 20.568 74.7878 21.176C74.4358 21.768 74.0998 22.376 73.7798 23H69.8678C70.9078 21.208 71.8758 19.552 72.7718 18.032C73.6838 16.512 74.5558 15.08 75.3878 13.736C76.2358 12.392 77.0598 11.12 77.8598 9.92C78.6598 8.704 79.4758 7.52 80.3078 6.368H83.6438C83.8998 7.52 84.1398 8.8 84.3638 10.208C84.6038 11.6 84.8198 13.032 85.0118 14.504C85.2198 15.96 85.4038 17.424 85.5638 18.896C85.7398 20.352 85.8998 21.72 86.0438 23H82.2758ZM81.1718 10.016C80.4998 11.088 79.8358 12.152 79.1798 13.208C78.5398 14.264 77.9158 15.344 77.3078 16.448H81.7958C81.7158 15.472 81.6278 14.432 81.5318 13.328C81.4518 12.224 81.3318 11.12 81.1718 10.016ZM99.4851 23C98.8131 21.112 98.0611 19.224 97.2291 17.336C96.4131 15.448 95.5251 13.664 94.5651 11.984L91.9251 23H88.2531L92.2371 6.368H95.0931C95.4611 6.928 95.8531 7.592 96.2691 8.36C96.7011 9.112 97.1411 9.928 97.5891 10.808C98.0371 11.688 98.4851 12.608 98.9331 13.568C99.3811 14.512 99.8051 15.448 100.205 16.376L102.581 6.368H106.301L102.293 23H99.4851ZM114.634 6.176C115.642 6.176 116.546 6.288 117.346 6.512C118.162 6.72 118.85 7.032 119.41 7.448C119.97 7.848 120.402 8.344 120.706 8.936C121.01 9.528 121.162 10.192 121.162 10.928C121.162 12.128 120.93 13.144 120.466 13.976C120.002 14.808 119.362 15.48 118.546 15.992C117.73 16.504 116.77 16.872 115.666 17.096C114.562 17.32 113.362 17.432 112.066 17.432H111.13L109.786 23H106.066L109.978 6.608C110.842 6.448 111.658 6.336 112.426 6.272C113.21 6.208 113.946 6.176 114.634 6.176ZM114.322 9.32C114.05 9.32 113.818 9.328 113.626 9.344C113.434 9.36 113.242 9.376 113.05 9.392L111.898 14.288H112.834C113.506 14.288 114.114 14.24 114.658 14.144C115.218 14.032 115.69 13.856 116.074 13.616C116.474 13.376 116.778 13.072 116.986 12.704C117.21 12.32 117.322 11.856 117.322 11.312C117.322 10.592 117.058 10.08 116.53 9.776C116.018 9.472 115.282 9.32 114.322 9.32ZM125.378 6.368H129.122L125.114 23H121.394L125.378 6.368ZM128.87 23L132.854 6.368H143.726L142.958 9.44H135.83L135.062 12.8H141.35L140.606 15.824H134.318L133.358 19.904H141.038L140.27 23H128.87ZM151.784 6.176C152.856 6.176 153.792 6.304 154.592 6.56C155.392 6.816 156.056 7.16 156.584 7.592C157.112 8.024 157.504 8.536 157.76 9.128C158.016 9.704 158.144 10.312 158.144 10.952C158.144 11.48 158.08 12 157.952 12.512C157.84 13.024 157.616 13.512 157.28 13.976C156.96 14.44 156.52 14.872 155.96 15.272C155.416 15.656 154.712 15.984 153.848 16.256C154.296 17.088 154.752 18.096 155.216 19.28C155.696 20.464 156.144 21.704 156.56 23H152.552C152.184 21.896 151.808 20.808 151.424 19.736C151.056 18.648 150.64 17.712 150.176 16.928H148.304L146.84 23H143.12L147.032 6.608C147.896 6.448 148.736 6.336 149.552 6.272C150.368 6.208 151.112 6.176 151.784 6.176ZM151.664 9.344C151.392 9.344 151.112 9.352 150.824 9.368C150.536 9.384 150.296 9.4 150.104 9.416L149.024 13.976H150.296C151.064 13.976 151.712 13.904 152.24 13.76C152.768 13.616 153.192 13.424 153.512 13.184C153.832 12.944 154.056 12.672 154.184 12.368C154.328 12.048 154.4 11.728 154.4 11.408C154.4 11.136 154.36 10.88 154.28 10.64C154.2 10.384 154.056 10.16 153.848 9.968C153.64 9.776 153.36 9.624 153.008 9.512C152.656 9.4 152.208 9.344 151.664 9.344ZM158.87 23L162.854 6.368H173.726L172.958 9.44H165.83L165.062 12.8H171.35L170.606 15.824H164.318L163.358 19.904H171.038L170.27 23H158.87Z" fill="#232F50"/>
<path d="M47.488 27.526C47.56 27.85 47.65 28.312 47.758 28.912C47.878 29.5 47.998 30.154 48.118 30.874C48.25 31.582 48.382 32.314 48.514 33.07C48.646 33.814 48.766 34.498 48.874 35.122C49.282 34.498 49.726 33.826 50.206 33.106C50.686 32.386 51.16 31.678 51.628 30.982C52.096 30.286 52.54 29.638 52.96 29.038C53.38 28.426 53.74 27.922 54.04 27.526H56.524C56.44 28.354 56.326 29.284 56.182 30.316C56.05 31.348 55.894 32.416 55.714 33.52C55.546 34.624 55.366 35.734 55.174 36.85C54.982 37.966 54.79 39.016 54.598 40H51.862C52.114 38.776 52.378 37.456 52.654 36.04C52.942 34.612 53.206 33.172 53.446 31.72C53.134 32.212 52.786 32.764 52.402 33.376C52.018 33.976 51.634 34.588 51.25 35.212C50.866 35.824 50.494 36.412 50.134 36.976C49.774 37.54 49.462 38.02 49.198 38.416H47.146C47.086 38.056 47.014 37.6 46.93 37.048C46.846 36.496 46.75 35.914 46.642 35.302C46.546 34.678 46.444 34.054 46.336 33.43C46.228 32.794 46.126 32.224 46.03 31.72C45.562 33.172 45.136 34.612 44.752 36.04C44.38 37.456 44.032 38.776 43.708 40H40.99C41.266 39.016 41.566 37.966 41.89 36.85C42.226 35.734 42.568 34.624 42.916 33.52C43.276 32.404 43.63 31.33 43.978 30.298C44.326 29.266 44.656 28.342 44.968 27.526H47.488ZM64.8027 29.65C64.2507 29.65 63.7347 29.794 63.2547 30.082C62.7867 30.37 62.3727 30.754 62.0127 31.234C61.6647 31.714 61.3887 32.266 61.1847 32.89C60.9927 33.514 60.8967 34.156 60.8967 34.816C60.8967 35.716 61.0827 36.448 61.4547 37.012C61.8387 37.564 62.4567 37.84 63.3087 37.84C63.8607 37.84 64.3707 37.696 64.8387 37.408C65.3187 37.12 65.7327 36.736 66.0807 36.256C66.4407 35.776 66.7167 35.23 66.9087 34.618C67.1127 33.994 67.2147 33.346 67.2147 32.674C67.2147 31.774 67.0227 31.048 66.6387 30.496C66.2667 29.932 65.6547 29.65 64.8027 29.65ZM63.0207 40.252C62.2887 40.252 61.6167 40.132 61.0047 39.892C60.3927 39.652 59.8647 39.31 59.4207 38.866C58.9767 38.41 58.6287 37.858 58.3767 37.21C58.1367 36.562 58.0167 35.83 58.0167 35.014C58.0167 34.078 58.1787 33.148 58.5027 32.224C58.8267 31.3 59.2887 30.472 59.8887 29.74C60.5007 28.996 61.2447 28.396 62.1207 27.94C62.9967 27.472 63.9867 27.238 65.0907 27.238C65.8227 27.238 66.4947 27.358 67.1067 27.598C67.7187 27.838 68.2467 28.186 68.6907 28.642C69.1347 29.086 69.4767 29.632 69.7167 30.28C69.9687 30.928 70.0947 31.66 70.0947 32.476C70.0947 33.412 69.9327 34.348 69.6087 35.284C69.2967 36.208 68.8347 37.042 68.2227 37.786C67.6227 38.518 66.8847 39.112 66.0087 39.568C65.1327 40.024 64.1367 40.252 63.0207 40.252ZM79.1998 40C78.6958 38.584 78.1318 37.168 77.5078 35.752C76.8958 34.336 76.2298 32.998 75.5098 31.738L73.5298 40H70.7758L73.7638 27.526H75.9058C76.1818 27.946 76.4758 28.444 76.7878 29.02C77.1118 29.584 77.4418 30.196 77.7778 30.856C78.1138 31.516 78.4498 32.206 78.7858 32.926C79.1218 33.634 79.4398 34.336 79.7398 35.032L81.5218 27.526H84.3118L81.3058 40H79.1998ZM96.0872 27.526L95.5112 29.884H91.8572L89.4272 40H86.6192L89.0492 29.884H85.3952L85.9712 27.526H96.0872ZM94.8227 40L97.8107 27.526H105.965L105.389 29.83H100.043L99.4667 32.35H104.183L103.625 34.618H98.9087L98.1887 37.678H103.949L103.373 40H94.8227ZM109.002 37.912C109.278 37.912 109.554 37.894 109.83 37.858C110.106 37.81 110.352 37.732 110.568 37.624C110.784 37.516 110.958 37.366 111.09 37.174C111.234 36.97 111.306 36.712 111.306 36.4C111.306 36.16 111.24 35.956 111.108 35.788C110.976 35.608 110.808 35.446 110.604 35.302C110.4 35.158 110.172 35.026 109.92 34.906C109.668 34.786 109.416 34.654 109.164 34.51C108.84 34.318 108.534 34.114 108.246 33.898C107.958 33.682 107.712 33.442 107.508 33.178C107.304 32.902 107.142 32.602 107.022 32.278C106.902 31.942 106.842 31.558 106.842 31.126C106.842 30.574 106.944 30.064 107.148 29.596C107.364 29.116 107.676 28.702 108.084 28.354C108.504 28.006 109.026 27.736 109.65 27.544C110.274 27.34 111.006 27.238 111.846 27.238C112.23 27.238 112.602 27.274 112.962 27.346C113.322 27.406 113.658 27.484 113.97 27.58C114.282 27.676 114.564 27.79 114.816 27.922C115.08 28.042 115.302 28.162 115.482 28.282L114.312 30.352C114.012 30.124 113.646 29.932 113.214 29.776C112.782 29.62 112.314 29.542 111.81 29.542C111.534 29.542 111.27 29.566 111.018 29.614C110.766 29.662 110.544 29.746 110.352 29.866C110.16 29.974 110.004 30.118 109.884 30.298C109.776 30.478 109.722 30.7 109.722 30.964C109.722 31.204 109.764 31.408 109.848 31.576C109.944 31.732 110.064 31.87 110.208 31.99C110.352 32.11 110.52 32.218 110.712 32.314C110.904 32.41 111.108 32.512 111.324 32.62C111.696 32.812 112.056 33.016 112.404 33.232C112.752 33.448 113.058 33.7 113.322 33.988C113.586 34.264 113.796 34.582 113.952 34.942C114.108 35.302 114.186 35.728 114.186 36.22C114.186 36.904 114.06 37.498 113.808 38.002C113.556 38.506 113.202 38.926 112.746 39.262C112.29 39.598 111.744 39.844 111.108 40C110.484 40.168 109.788 40.252 109.02 40.252C108.516 40.252 108.042 40.21 107.598 40.126C107.166 40.042 106.77 39.946 106.41 39.838C106.062 39.718 105.756 39.592 105.492 39.46C105.24 39.328 105.036 39.208 104.88 39.1L106.068 36.958C106.212 37.054 106.386 37.156 106.59 37.264C106.794 37.372 107.022 37.474 107.274 37.57C107.538 37.666 107.814 37.75 108.102 37.822C108.39 37.882 108.69 37.912 109.002 37.912Z" fill="#232F50"/>
<circle cx="18.5" cy="21.5" r="18" fill="#78BEDC" stroke="#78BEDC"/>
<path d="M26.3349 10.2644C27.9554 8.7975 30.3548 8.04831 30.3548 8.04831C30.8548 8.54831 36.6453 12.4517 36.5001 23C36.5001 23 32.7892 25.1406 30.8062 23.8635C29.4556 22.9937 30.1094 20.7025 28.5243 20.4406C27.4106 20.2566 26.9601 21.5901 25.8349 21.5001C23.4872 21.3123 23.9182 18.1501 23.8789 15.7952C23.8376 13.3196 24.4993 11.926 26.3349 10.2644Z" fill="#2EB03B" stroke="#2EB03B"/>
<path d="M26.5684 27.8568C24.4725 30.848 28.0001 36.5 28.0001 36.5C31.5001 34 33.4158 33.2193 35.5001 27.5C35.5001 27.5 28.7431 24.753 26.5684 27.8568Z" fill="#2EB03B" stroke="#2EB03B"/>
<path d="M10.0197 19.1745L10.0161 19.1584C10.0111 19.1358 10.0037 19.103 9.99408 19.0609C9.97477 18.9766 9.94629 18.8553 9.90926 18.7049C9.83525 18.4044 9.72676 17.9869 9.58862 17.518C9.31558 16.5912 8.915 15.4223 8.41941 14.5665C8.04969 13.9281 7.42494 13.4768 6.80445 13.1265C6.39309 12.8942 5.93275 12.6806 5.51369 12.4861C5.31066 12.392 5.11732 12.3023 4.94394 12.2171C4.6647 12.08 4.42625 11.9506 4.23515 11.8199C4.04154 11.6876 3.92376 11.572 3.85976 11.4733C3.80395 11.3873 3.78763 11.3138 3.80008 11.2264C3.81453 11.1251 3.87471 10.9638 4.05595 10.731C5.83752 8.61085 7.33076 7.24699 8.91058 6.25263C10.4905 5.2582 12.1832 4.6166 14.3921 3.97184C14.5107 3.9439 14.6825 3.96035 14.9295 4.09176C15.1818 4.22602 15.4701 4.459 15.783 4.78769C16.4074 5.44376 17.0572 6.40409 17.6408 7.45097C18.222 8.4938 18.7235 9.59743 19.0581 10.5238C19.2255 10.9875 19.3478 11.3978 19.4183 11.7283C19.4933 12.0798 19.4945 12.2748 19.4788 12.3453C19.474 12.3668 19.4361 12.4584 19.2458 12.6198C19.0657 12.7724 18.8065 12.9403 18.4715 13.1301C18.1391 13.3185 17.7548 13.5162 17.3316 13.7338L17.3289 13.7352C16.9099 13.9507 16.4567 14.1837 16.0002 14.4368C15.0885 14.9422 14.1354 15.5425 13.367 16.2838C12.5956 17.028 11.9862 17.9378 11.812 19.0599C11.4495 21.3954 12.1956 22.9164 13.1064 24.7735C13.2042 24.9727 13.3038 25.1758 13.4041 25.3843C14.2497 27.1401 15.9062 28.046 17.3178 28.8178C17.4821 28.9077 17.6431 28.9958 17.7992 29.0832C18.5767 29.5185 19.2365 29.933 19.707 30.4534C20.1595 30.954 20.4445 31.5618 20.4449 32.4209C20.4454 33.2118 20.138 34.0206 19.6279 34.8111C19.119 35.5998 18.4273 36.3401 17.7088 36.9834C16.992 37.6252 16.261 38.1592 15.6855 38.5369C15.3979 38.7257 15.1522 38.8733 14.9697 38.9746C14.8781 39.0254 14.806 39.0626 14.7546 39.0869C14.7483 39.0899 14.7425 39.0926 14.7374 39.0949C14.7186 39.0931 14.6885 39.0896 14.6448 39.0824C14.539 39.065 14.3949 39.0336 14.2163 38.9877C13.8606 38.8961 13.3955 38.754 12.8783 38.5745C11.8539 38.2189 10.6575 37.7284 9.73118 37.2186L9.70223 37.1957C9.66283 37.1642 9.60428 37.1168 9.5295 37.055C9.37988 36.9311 9.16557 36.7492 8.90979 36.5193C8.39735 36.0586 7.72286 35.4089 7.06973 34.6502C6.41468 33.8892 5.79348 33.0327 5.37532 32.1588C4.95567 31.2819 4.76007 30.4288 4.89359 29.6531C5.1134 28.376 6.11516 27.8029 7.41481 27.1101C7.443 27.0951 7.47135 27.08 7.49984 27.0649C8.70384 26.424 10.1579 25.6499 10.5144 23.8806C10.7083 22.9181 10.5694 21.7174 10.4019 20.8033C10.3165 20.3369 10.22 19.9268 10.1449 19.6332C10.1073 19.4862 10.0749 19.3678 10.0517 19.2856C10.0401 19.2445 10.0308 19.2123 10.0243 19.1902L10.0197 19.1745Z" fill="#2EB03B" stroke="#2EB03B" stroke-linecap="round" stroke-linejoin="round"/>
</svg>
