<svg width="1259" height="329" viewBox="0 0 1259 329" fill="none" xmlns="http://www.w3.org/2000/svg">
<path d="M389.273 111.3C387.913 117.08 386.1 122.35 383.833 127.11C381.567 131.757 378.62 135.78 374.993 139.18C371.367 142.467 366.89 145.017 361.563 146.83C356.237 148.53 349.777 149.38 342.183 149.38C336.063 149.38 330.227 148.473 324.673 146.66C319.233 144.733 314.417 142.183 310.223 139.01L321.953 119.29C324.673 121.217 327.62 122.917 330.793 124.39C334.08 125.863 337.933 126.6 342.353 126.6C345.527 126.6 348.247 126.26 350.513 125.58C352.893 124.787 354.933 123.597 356.633 122.01C358.333 120.31 359.75 118.157 360.883 115.55C362.13 112.943 363.207 109.77 364.113 106.03L382.473 29.19H408.993L389.273 111.3ZM503.789 29.19H530.309L501.919 147H475.399L487.47 96.85H445.649L433.579 147H407.229L435.449 29.19H461.969L451.089 74.41H492.91L503.789 29.19ZM606.277 147C606.05 142.58 605.767 138.273 605.427 134.08C605.2 129.773 604.917 125.523 604.577 121.33H560.377C558.11 125.523 555.73 129.773 553.237 134.08C550.744 138.273 548.364 142.58 546.097 147H518.387C525.754 134.307 532.61 122.577 538.957 111.81C545.417 101.043 551.594 90.9 557.487 81.38C563.494 71.86 569.33 62.85 574.997 54.35C580.664 45.7367 586.444 37.35 592.337 29.19H615.967C617.78 37.35 619.48 46.4167 621.067 56.39C622.767 66.25 624.297 76.3933 625.657 86.82C627.13 97.1333 628.434 107.503 629.567 117.93C630.814 128.243 631.947 137.933 632.967 147H606.277ZM598.457 55.03C593.697 62.6233 588.994 70.16 584.347 77.64C579.814 85.12 575.394 92.77 571.087 100.59H602.877C602.31 93.6767 601.687 86.31 601.007 78.49C600.44 70.67 599.59 62.85 598.457 55.03ZM728.176 147C723.416 133.627 718.09 120.253 712.196 106.88C706.416 93.5067 700.126 80.87 693.326 68.97L674.626 147H648.616L676.836 29.19H697.066C699.673 33.1567 702.45 37.86 705.396 43.3C708.456 48.6267 711.573 54.4067 714.746 60.64C717.92 66.8733 721.093 73.39 724.266 80.19C727.44 86.8767 730.443 93.5067 733.276 100.08L750.106 29.19H776.456L748.066 147H728.176ZM835.478 27.83C842.618 27.83 849.021 28.6233 854.688 30.21C860.468 31.6833 865.341 33.8933 869.308 36.84C873.275 39.6733 876.335 43.1867 878.488 47.38C880.641 51.5733 881.718 56.2767 881.718 61.49C881.718 69.99 880.075 77.1867 876.788 83.08C873.501 88.9733 868.968 93.7333 863.188 97.36C857.408 100.987 850.608 103.593 842.788 105.18C834.968 106.767 826.468 107.56 817.288 107.56H810.658L801.138 147H774.788L802.498 30.89C808.618 29.7567 814.398 28.9633 819.838 28.51C825.391 28.0567 830.605 27.83 835.478 27.83ZM833.268 50.1C831.341 50.1 829.698 50.1567 828.338 50.27C826.978 50.3833 825.618 50.4967 824.258 50.61L816.098 85.29H822.728C827.488 85.29 831.795 84.95 835.648 84.27C839.615 83.4767 842.958 82.23 845.678 80.53C848.511 78.83 850.665 76.6767 852.138 74.07C853.725 71.35 854.518 68.0633 854.518 64.21C854.518 59.11 852.648 55.4833 848.908 53.33C845.281 51.1767 840.068 50.1 833.268 50.1ZM911.582 29.19H938.102L909.712 147H883.362L911.582 29.19ZM936.321 147L964.541 29.19H1041.55L1036.11 50.95H985.621L980.181 74.75H1024.72L1019.45 96.17H974.911L968.111 125.07H1022.51L1017.07 147H936.321ZM1098.63 27.83C1106.22 27.83 1112.85 28.7367 1118.52 30.55C1124.19 32.3633 1128.89 34.8 1132.63 37.86C1136.37 40.92 1139.15 44.5467 1140.96 48.74C1142.77 52.82 1143.68 57.1267 1143.68 61.66C1143.68 65.4 1143.23 69.0833 1142.32 72.71C1141.53 76.3367 1139.94 79.7933 1137.56 83.08C1135.29 86.3667 1132.18 89.4267 1128.21 92.26C1124.36 94.98 1119.37 97.3033 1113.25 99.23C1116.42 105.123 1119.65 112.263 1122.94 120.65C1126.34 129.037 1129.51 137.82 1132.46 147H1104.07C1101.46 139.18 1098.8 131.473 1096.08 123.88C1093.47 116.173 1090.53 109.543 1087.24 103.99H1073.98L1063.61 147H1037.26L1064.97 30.89C1071.09 29.7567 1077.04 28.9633 1082.82 28.51C1088.6 28.0567 1093.87 27.83 1098.63 27.83ZM1097.78 50.27C1095.85 50.27 1093.87 50.3267 1091.83 50.44C1089.79 50.5533 1088.09 50.6667 1086.73 50.78L1079.08 83.08H1088.09C1093.53 83.08 1098.12 82.57 1101.86 81.55C1105.6 80.53 1108.6 79.17 1110.87 77.47C1113.14 75.77 1114.72 73.8433 1115.63 71.69C1116.65 69.4233 1117.16 67.1567 1117.16 64.89C1117.16 62.9633 1116.88 61.15 1116.31 59.45C1115.74 57.6367 1114.72 56.05 1113.25 54.69C1111.78 53.33 1109.79 52.2533 1107.3 51.46C1104.81 50.6667 1101.63 50.27 1097.78 50.27ZM1148.82 147L1177.04 29.19H1254.05L1248.61 50.95H1198.12L1192.68 74.75H1237.22L1231.95 96.17H1187.41L1180.61 125.07H1235.01L1229.57 147H1148.82Z" fill="#EDEDED"/>
<path d="M356.743 211.84C357.223 214 357.823 217.08 358.543 221.08C359.343 225 360.143 229.36 360.943 234.16C361.823 238.88 362.703 243.76 363.583 248.8C364.463 253.76 365.263 258.32 365.983 262.48C368.703 258.32 371.663 253.84 374.863 249.04C378.063 244.24 381.223 239.52 384.343 234.88C387.463 230.24 390.423 225.92 393.223 221.92C396.023 217.84 398.423 214.48 400.423 211.84H416.983C416.423 217.36 415.663 223.56 414.703 230.44C413.823 237.32 412.783 244.44 411.583 251.8C410.463 259.16 409.263 266.56 407.983 274C406.703 281.44 405.423 288.44 404.143 295H385.903C387.583 286.84 389.343 278.04 391.183 268.6C393.103 259.08 394.863 249.48 396.463 239.8C394.383 243.08 392.063 246.76 389.503 250.84C386.943 254.84 384.383 258.92 381.823 263.08C379.263 267.16 376.783 271.08 374.383 274.84C371.983 278.6 369.903 281.8 368.143 284.44H354.463C354.063 282.04 353.583 279 353.023 275.32C352.463 271.64 351.823 267.76 351.103 263.68C350.463 259.52 349.783 255.36 349.063 251.2C348.343 246.96 347.663 243.16 347.023 239.8C343.903 249.48 341.063 259.08 338.503 268.6C336.023 278.04 333.703 286.84 331.543 295H313.423C315.263 288.44 317.263 281.44 319.423 274C321.663 266.56 323.943 259.16 326.263 251.8C328.663 244.36 331.023 237.2 333.343 230.32C335.663 223.44 337.863 217.28 339.943 211.84H356.743ZM472.175 226C468.495 226 465.055 226.96 461.855 228.88C458.735 230.8 455.975 233.36 453.575 236.56C451.255 239.76 449.415 243.44 448.055 247.6C446.775 251.76 446.135 256.04 446.135 260.44C446.135 266.44 447.375 271.32 449.855 275.08C452.415 278.76 456.535 280.6 462.215 280.6C465.895 280.6 469.295 279.64 472.415 277.72C475.615 275.8 478.375 273.24 480.695 270.04C483.095 266.84 484.935 263.2 486.215 259.12C487.575 254.96 488.255 250.64 488.255 246.16C488.255 240.16 486.975 235.32 484.415 231.64C481.935 227.88 477.855 226 472.175 226ZM460.295 296.68C455.415 296.68 450.935 295.88 446.855 294.28C442.775 292.68 439.255 290.4 436.295 287.44C433.335 284.4 431.015 280.72 429.335 276.4C427.735 272.08 426.935 267.2 426.935 261.76C426.935 255.52 428.015 249.32 430.175 243.16C432.335 237 435.415 231.48 439.415 226.6C443.495 221.64 448.455 217.64 454.295 214.6C460.135 211.48 466.735 209.92 474.095 209.92C478.975 209.92 483.455 210.72 487.535 212.32C491.615 213.92 495.135 216.24 498.095 219.28C501.055 222.24 503.335 225.88 504.935 230.2C506.615 234.52 507.455 239.4 507.455 244.84C507.455 251.08 506.375 257.32 504.215 263.56C502.135 269.72 499.055 275.28 494.975 280.24C490.975 285.12 486.055 289.08 480.215 292.12C474.375 295.16 467.735 296.68 460.295 296.68ZM568.155 295C564.795 285.56 561.035 276.12 556.875 266.68C552.795 257.24 548.355 248.32 543.555 239.92L530.355 295H511.995L531.915 211.84H546.195C548.035 214.64 549.995 217.96 552.075 221.8C554.235 225.56 556.435 229.64 558.675 234.04C560.915 238.44 563.155 243.04 565.395 247.84C567.635 252.56 569.755 257.24 571.755 261.88L583.635 211.84H602.235L582.195 295H568.155ZM680.738 211.84L676.898 227.56H652.538L636.338 295H617.618L633.818 227.56H609.458L613.298 211.84H680.738ZM672.308 295L692.228 211.84H746.588L742.748 227.2H707.108L703.268 244H734.708L730.988 259.12H699.548L694.748 279.52H733.148L729.308 295H672.308ZM766.838 281.08C768.678 281.08 770.518 280.96 772.358 280.72C774.198 280.4 775.838 279.88 777.278 279.16C778.718 278.44 779.878 277.44 780.758 276.16C781.718 274.8 782.198 273.08 782.198 271C782.198 269.4 781.758 268.04 780.878 266.92C779.998 265.72 778.878 264.64 777.518 263.68C776.158 262.72 774.638 261.84 772.958 261.04C771.278 260.24 769.598 259.36 767.918 258.4C765.758 257.12 763.718 255.76 761.798 254.32C759.878 252.88 758.238 251.28 756.878 249.52C755.518 247.68 754.438 245.68 753.638 243.52C752.838 241.28 752.438 238.72 752.438 235.84C752.438 232.16 753.118 228.76 754.478 225.64C755.918 222.44 757.998 219.68 760.718 217.36C763.518 215.04 766.998 213.24 771.158 211.96C775.318 210.6 780.198 209.92 785.798 209.92C788.358 209.92 790.838 210.16 793.238 210.64C795.638 211.04 797.878 211.56 799.958 212.2C802.038 212.84 803.918 213.6 805.598 214.48C807.358 215.28 808.838 216.08 810.038 216.88L802.238 230.68C800.238 229.16 797.798 227.88 794.918 226.84C792.038 225.8 788.918 225.28 785.558 225.28C783.718 225.28 781.958 225.44 780.278 225.76C778.598 226.08 777.118 226.64 775.838 227.44C774.558 228.16 773.518 229.12 772.718 230.32C771.998 231.52 771.638 233 771.638 234.76C771.638 236.36 771.918 237.72 772.478 238.84C773.118 239.88 773.918 240.8 774.878 241.6C775.838 242.4 776.958 243.12 778.238 243.76C779.518 244.4 780.878 245.08 782.318 245.8C784.798 247.08 787.198 248.44 789.518 249.88C791.838 251.32 793.878 253 795.638 254.92C797.398 256.76 798.798 258.88 799.838 261.28C800.878 263.68 801.398 266.52 801.398 269.8C801.398 274.36 800.558 278.32 798.878 281.68C797.198 285.04 794.838 287.84 791.798 290.08C788.758 292.32 785.118 293.96 780.878 295C776.718 296.12 772.078 296.68 766.958 296.68C763.598 296.68 760.438 296.4 757.478 295.84C754.598 295.28 751.958 294.64 749.558 293.92C747.238 293.12 745.198 292.28 743.438 291.4C741.758 290.52 740.398 289.72 739.358 289L747.278 274.72C748.238 275.36 749.398 276.04 750.758 276.76C752.118 277.48 753.638 278.16 755.318 278.8C757.078 279.44 758.918 280 760.838 280.48C762.758 280.88 764.758 281.08 766.838 281.08Z" fill="#EDEDED"/>
<path d="M284.172 155.739C284.172 232.314 220.68 294.409 142.336 294.409C63.9915 294.409 0.5 232.314 0.5 155.739C0.5 79.1636 63.9915 17.0682 142.336 17.0682C220.68 17.0682 284.172 79.1636 284.172 155.739Z" fill="#78BEDC" stroke="#78BEDC"/>
<path d="M206.085 68.9569C218.553 57.9216 237.014 52.2856 237.014 52.2856C240.861 56.047 285.411 85.4112 284.294 164.763C284.294 164.763 255.743 180.867 240.487 171.259C230.095 164.715 235.125 147.48 222.93 145.51C214.361 144.125 210.895 154.157 202.238 153.48C184.175 152.067 187.491 128.279 187.189 110.564C186.871 91.9403 191.962 81.4567 206.085 68.9569Z" fill="#2EB03B" stroke="#2EB03B"/>
<path d="M205.568 209.208C189.443 231.71 216.583 274.228 216.583 274.228C243.512 255.421 258.251 249.548 274.287 206.524C274.287 206.524 222.3 185.858 205.568 209.208Z" fill="#2EB03B" stroke="#2EB03B"/>
<path d="M77.612 173.005C78.9707 166.411 78.0126 157.899 76.7357 151.083C76.0955 147.665 75.3715 144.656 74.8075 142.501C74.5255 141.423 74.2834 140.558 74.1115 139.962C74.0256 139.665 73.9572 139.434 73.9103 139.277C73.8868 139.199 73.8686 139.139 73.8563 139.099L73.8435 139.057L73.8337 139.013C73.8244 138.971 73.8104 138.909 73.7919 138.828C73.755 138.665 73.7 138.425 73.6274 138.116C73.4824 137.498 73.2674 136.602 72.9872 135.489C72.4267 133.264 71.605 130.172 70.5593 126.702C68.4715 119.772 65.4791 111.293 61.8762 105.21C59.4855 101.174 55.3164 98.1333 50.6998 95.5842C47.6446 93.8973 44.3426 92.4005 41.1911 90.972C39.5898 90.2461 38.0273 89.5379 36.5559 88.8313C34.3588 87.7762 32.3563 86.722 30.6889 85.6075C29.0187 84.4911 27.713 83.3328 26.8827 82.0807C26.0611 80.8417 25.7006 79.5061 25.921 77.9946C26.1435 76.4688 26.9649 74.7177 28.5987 72.6777C42.4597 56.5432 54.2122 46.0056 66.7668 38.2793C79.3222 30.5526 92.7057 25.6211 109.857 20.7293C111.853 20.2359 114.064 20.669 116.438 21.9041C118.816 23.1412 121.318 25.1632 123.857 27.7721C128.935 32.9887 134.093 40.4776 138.648 48.4679C143.201 56.4543 147.137 64.9165 149.776 72.0634C151.096 75.6374 152.089 78.8733 152.673 81.5507C153.262 84.2495 153.419 86.3112 153.132 87.5753C152.856 88.7905 151.879 90.0604 150.24 91.4193C148.612 92.7688 146.399 94.1513 143.768 95.6094C141.14 97.0659 138.118 98.5854 134.879 100.214L134.878 100.214C131.642 101.841 128.194 103.575 124.727 105.454C117.797 109.211 110.766 113.562 105.169 118.842C99.5695 124.123 95.3791 130.359 94.1849 137.881C91.5627 154.399 96.8438 164.947 103.867 178.974C104.609 180.456 105.371 181.977 106.144 183.548C112.154 195.751 123.897 202.05 134.858 207.93C136.112 208.603 137.357 209.271 138.581 209.941C144.571 213.221 150.085 216.56 154.106 220.909C158.109 225.239 160.64 230.577 160.644 237.892C160.648 244.681 157.958 251.379 153.826 257.639C149.696 263.896 144.146 269.685 138.483 274.642C132.821 279.598 127.06 283.713 122.52 286.626C120.25 288.083 118.288 289.237 116.8 290.045C116.056 290.449 115.433 290.764 114.952 290.986C114.454 291.217 114.15 291.327 114.021 291.352C113.728 291.41 113.102 291.381 112.127 291.224C111.178 291.071 109.964 290.81 108.539 290.451C105.689 289.734 102.02 288.636 97.9803 287.265C89.9102 284.527 80.3936 280.713 73.0049 276.708L73.0044 276.708L72.9122 276.637C72.8306 276.575 72.7092 276.481 72.5507 276.357C72.2337 276.109 71.7685 275.741 71.1777 275.263C69.9961 274.307 68.3122 272.91 66.3061 271.146C62.293 267.619 56.9951 262.631 51.8505 256.787C46.7039 250.941 41.7237 244.253 38.3333 237.326C34.9413 230.395 33.1615 223.268 34.3492 216.521C36.3563 205.119 45.7214 200.146 55.4673 195.066L55.7144 194.938C65.2967 189.944 75.1835 184.792 77.612 173.005Z" fill="#2EB03B" stroke="#2EB03B" stroke-linecap="round" stroke-linejoin="round"/>
</svg>
