<svg width="38" height="37" viewBox="0 0 38 37" fill="none" xmlns="http://www.w3.org/2000/svg">
<circle cx="18.5" cy="18.5" r="18" fill="#78BEDC" stroke="#78BEDC"/>
<path d="M26.3348 7.26444C27.9554 5.7975 30.3548 5.04831 30.3548 5.04831C30.8548 5.54831 36.6452 9.45171 36.5 20C36.5 20 32.7891 22.1406 30.8062 20.8635C29.4555 19.9937 30.1093 17.7025 28.5242 17.4406C27.4105 17.2566 26.9601 18.5901 25.8348 18.5001C23.4871 18.3123 23.9181 15.1501 23.8789 12.7952C23.8376 10.3196 24.4992 8.92604 26.3348 7.26444Z" fill="#2EB03B" stroke="#2EB03B"/>
<path d="M26.5683 24.8568C24.4725 27.848 28 33.5 28 33.5C31.5 31 33.4158 30.2193 35.5 24.5C35.5 24.5 28.7431 21.753 26.5683 24.8568Z" fill="#2EB03B" stroke="#2EB03B"/>
<path d="M10.0197 16.1745L10.0162 16.1584C10.0112 16.1358 10.0038 16.103 9.99414 16.0609C9.97483 15.9766 9.94635 15.8553 9.90932 15.7049C9.83531 15.4044 9.72683 14.9869 9.58868 14.518C9.31564 13.5912 8.91506 12.4223 8.41947 11.5665C8.04976 10.9281 7.425 10.4768 6.80451 10.1265C6.39315 9.89416 5.93281 9.68058 5.51375 9.48615C5.31072 9.39196 5.11739 9.30226 4.944 9.2171C4.66476 9.07996 4.42631 8.95055 4.23521 8.81992C4.0416 8.68757 3.92382 8.57203 3.85982 8.47332C3.80401 8.38725 3.78769 8.31378 3.80014 8.22643C3.81459 8.12511 3.87477 7.96384 4.05601 7.73104C5.83758 5.61085 7.33082 4.24699 8.91064 3.25263C10.4906 2.2582 12.1832 1.6166 14.3921 0.971838C14.5107 0.943904 14.6825 0.960354 14.9295 1.09176C15.1819 1.22602 15.4702 1.459 15.783 1.78769C16.4074 2.44376 17.0573 3.40409 17.6408 4.45097C18.2221 5.4938 18.7236 6.59743 19.0581 7.5238C19.2256 7.98752 19.3479 8.39784 19.4184 8.72832C19.4934 9.07984 19.4945 9.27479 19.4789 9.34528C19.4741 9.36682 19.4361 9.45842 19.2458 9.6198C19.0658 9.77244 18.8065 9.94026 18.4715 10.1301C18.1392 10.3185 17.7549 10.5162 17.3317 10.7338L17.3289 10.7352C16.9099 10.9507 16.4567 11.1837 16.0003 11.4368C15.0886 11.9422 14.1355 12.5425 13.3671 13.2838C12.5957 14.028 11.9863 14.9378 11.8121 16.0599C11.4496 18.3954 12.1956 19.9164 13.1065 21.7735C13.2042 21.9727 13.3038 22.1758 13.4042 22.3843C14.2497 24.1401 15.9063 25.046 17.3178 25.8178C17.4822 25.9077 17.6432 25.9958 17.7993 26.0832C18.5767 26.5185 19.2366 26.933 19.707 27.4534C20.1596 27.954 20.4445 28.5618 20.445 29.4209C20.4454 30.2118 20.1381 31.0206 19.628 31.8111C19.119 32.5998 18.4274 33.3401 17.7089 33.9834C16.992 34.6252 16.2611 35.1592 15.6856 35.5369C15.3979 35.7257 15.1522 35.8733 14.9698 35.9746C14.8781 36.0254 14.806 36.0626 14.7547 36.0869C14.7483 36.0899 14.7426 36.0926 14.7375 36.0949C14.7186 36.0931 14.6886 36.0896 14.6448 36.0824C14.5391 36.065 14.395 36.0336 14.2164 35.9877C13.8606 35.8961 13.3956 35.754 12.8784 35.5745C11.8539 35.2189 10.6576 34.7284 9.73124 34.2186L9.70229 34.1957C9.66289 34.1642 9.60434 34.1168 9.52956 34.055C9.37994 33.9311 9.16563 33.7492 8.90985 33.5193C8.39741 33.0586 7.72292 32.4089 7.06979 31.6502C6.41474 30.8892 5.79354 30.0327 5.37539 29.1588C4.95573 28.2819 4.76013 27.4288 4.89365 26.6531C5.11346 25.376 6.11522 24.8029 7.41487 24.1101C7.44306 24.0951 7.47141 24.08 7.4999 24.0649C8.7039 23.424 10.158 22.6499 10.5145 20.8806C10.7083 19.9181 10.5694 18.7174 10.402 17.8033C10.3166 17.3369 10.2201 16.9268 10.145 16.6332C10.1074 16.4862 10.075 16.3678 10.0518 16.2856C10.0402 16.2445 10.0309 16.2123 10.0244 16.1902L10.0197 16.1745Z" fill="#2EB03B" stroke="#2EB03B" stroke-linecap="round" stroke-linejoin="round"/>
</svg>
