<svg width="64" height="64" viewBox="0 0 64 64" fill="none" xmlns="http://www.w3.org/2000/svg">
<path d="M64 7.58098C62.2178 10.8444 60.0313 13.6264 57.4405 15.9268C57.4661 16.5437 57.4789 17.241 57.4789 18.0187C57.4789 22.3397 56.9671 26.6659 55.9437 30.9973C54.9202 35.3288 53.3568 39.4748 51.2536 43.4353C49.1503 47.3958 46.6449 50.9044 43.7374 53.9612C40.83 57.018 37.335 59.4554 33.2526 61.2732C29.1703 63.0911 24.7951 64 20.127 64C12.8418 64 6.13275 61.5788 0 56.7365C1.08849 56.8856 2.13245 56.9601 3.13186 56.9601C9.21811 56.9601 14.6541 54.6524 19.4398 50.0368C16.6021 49.9728 14.0607 48.8974 11.8156 46.8106C9.5705 44.7239 8.02548 42.0575 7.18054 38.8114C8.01571 39.0073 8.84 39.1052 9.6534 39.1052C10.8242 39.1052 11.9763 38.9172 13.1097 38.5412C10.0813 37.7945 7.56894 35.9377 5.5727 32.9707C3.57654 30.0037 2.57845 26.5792 2.57845 22.6972V22.4971C4.4373 23.7642 6.42006 24.4381 8.52672 24.519C6.73271 23.0467 5.31034 21.1267 4.25959 18.7591C3.20877 16.3915 2.68336 13.8293 2.68336 11.0726C2.68336 8.16513 3.27518 5.45777 4.45881 2.95046C7.75215 7.92569 11.7427 11.902 16.4305 14.8795C21.1184 17.8571 26.1476 19.5107 31.5181 19.8404C31.289 18.6653 31.1743 17.4389 31.1739 16.1614C31.1739 11.7008 32.4561 7.89205 35.0207 4.73523C37.5852 1.57841 40.6792 0 44.3027 0C48.0963 0 51.2917 1.7005 53.8888 5.1015C56.8563 4.37792 59.6347 3.06914 62.2242 1.17517C61.2266 5.04034 59.3042 8.02205 56.4571 10.1203C59.0739 9.73751 61.5881 8.89106 63.9999 7.58098H64Z" fill="#A4A4A7" fill-opacity="0.96"/>
</svg>
